<?xml version="1.0" encoding="utf-8"?>
<!-- Generator: Adobe Illustrator 22.0.1, SVG Export Plug-In . SVG Version: 6.00 Build 0)  -->
<svg version="1.0" id="レイヤー_1" xmlns="http://www.w3.org/2000/svg" xmlns:xlink="http://www.w3.org/1999/xlink" x="0px"
	 y="0px" viewBox="0 0 663.6 623.8" enable-background="new 0 0 663.6 623.8" xml:space="preserve">
<g>
	<polygon fill="#DEA174" points="87.9,322.3 106.4,306.5 201.3,393.5 185.4,412.1 	"/>
	<polygon fill="#FDB783" points="186.4,411 129.1,474 32.8,385.7 90.1,322.8 	"/>
	
		<rect x="8.4" y="347.6" transform="matrix(0.6734 -0.7393 0.7393 0.6734 -243.2046 157.0172)" fill="#BB7F64" width="95.5" height="12.3"/>
	<polygon fill="#87472C" points="83.7,314.3 102.6,299.4 110.8,306.8 92.8,322.6 	"/>
	<g>
		<defs>
			<polygon id="SVGID_1_" points="186.4,411 129.1,474 32.8,385.7 90.1,322.8 			"/>
		</defs>
		<clipPath id="SVGID_2_">
			<use xlink:href="#SVGID_1_"  overflow="visible"/>
		</clipPath>
		<g clip-path="url(#SVGID_2_)">
			<g>
				
					<rect x="39.3" y="382.4" transform="matrix(0.6769 -0.736 0.736 0.6769 -268.4724 156.9883)" fill="#BE8A53" width="10.5" height="3.9"/>
				<polygon fill="#BE8A53" points="59.2,371.3 52.1,379.1 49.2,376.4 56.4,368.7 				"/>
				
					<rect x="58.6" y="361.5" transform="matrix(0.6772 -0.7358 0.7358 0.6772 -246.7871 164.2666)" fill="#BE8A53" width="10.5" height="3.9"/>
				
					<rect x="68.2" y="351" transform="matrix(0.677 -0.736 0.736 0.677 -236.0497 168.0647)" fill="#BE8A53" width="10.5" height="3.9"/>
				
					<rect x="77.8" y="340.6" transform="matrix(0.6769 -0.7361 0.7361 0.6769 -225.2711 171.8083)" fill="#BE8A53" width="10.5" height="3.9"/>
				
					<rect x="87.4" y="330.1" transform="matrix(0.6774 -0.7356 0.7356 0.6774 -214.3681 175.3089)" fill="#BE8A53" width="10.5" height="3.8"/>
			</g>
			<g>
				
					<rect x="41.3" y="393.9" transform="matrix(0.6769 -0.736 0.736 0.6769 -276.2708 162.1211)" fill="#BE8A53" width="10.5" height="3.9"/>
				<polygon fill="#BE8A53" points="61.1,382.8 54,390.5 51.2,387.9 58.3,380.1 				"/>
				
					<rect x="60.5" y="372.9" transform="matrix(0.677 -0.736 0.736 0.677 -254.6397 169.4843)" fill="#BE8A53" width="10.5" height="3.8"/>
				
					<rect x="70.1" y="362.5" transform="matrix(0.6768 -0.7361 0.7361 0.6768 -243.8945 173.2762)" fill="#BE8A53" width="10.5" height="3.9"/>
				
					<rect x="79.8" y="352" transform="matrix(0.6773 -0.7357 0.7357 0.6773 -232.9732 176.7694)" fill="#BE8A53" width="10.5" height="3.9"/>
				
					<rect x="89.4" y="341.6" transform="matrix(0.677 -0.736 0.736 0.677 -222.2429 180.5981)" fill="#BE8A53" width="10.5" height="3.8"/>
			</g>
			<g>
				
					<rect x="51.6" y="393.7" transform="matrix(0.6771 -0.7359 0.7359 0.6771 -272.7762 169.6154)" fill="#BE8A53" width="10.5" height="3.9"/>
				
					<rect x="61.3" y="383.3" transform="matrix(0.6769 -0.736 0.736 0.6769 -262.0252 173.3919)" fill="#BE8A53" width="10.5" height="3.8"/>
				
					<rect x="70.9" y="372.8" transform="matrix(0.6772 -0.7358 0.7358 0.6772 -251.1471 176.9657)" fill="#BE8A53" width="10.5" height="3.9"/>
				
					<rect x="80.5" y="362.4" transform="matrix(0.6772 -0.7358 0.7358 0.6772 -240.3487 180.6686)" fill="#BE8A53" width="10.5" height="3.9"/>
				
					<rect x="90.1" y="351.9" transform="matrix(0.6772 -0.7358 0.7358 0.6772 -229.5566 184.3767)" fill="#BE8A53" width="10.5" height="3.8"/>
				<polygon fill="#BE8A53" points="110,340.8 102.8,348.6 100,345.9 107.1,338.2 				"/>
			</g>
			<g>
				<polygon fill="#BE8A53" points="63.8,404.5 56.7,412.3 53.9,409.6 61,401.9 				"/>
				
					<rect x="63.2" y="394.7" transform="matrix(0.6768 -0.7361 0.7361 0.6768 -269.8496 178.5716)" fill="#BE8A53" width="10.5" height="3.9"/>
				
					<rect x="72.8" y="384.3" transform="matrix(0.6772 -0.7358 0.7358 0.6772 -258.9424 182.1)" fill="#BE8A53" width="10.5" height="3.9"/>
				
					<rect x="82.4" y="373.8" transform="matrix(0.6771 -0.7359 0.7359 0.6771 -248.1719 185.8492)" fill="#BE8A53" width="10.5" height="3.9"/>
				<polygon fill="#BE8A53" points="102.3,362.7 95.2,370.4 92.3,367.8 99.5,360.1 				"/>
				
					<rect x="101.7" y="352.9" transform="matrix(0.6771 -0.7359 0.7359 0.6771 -226.5733 193.2537)" fill="#BE8A53" width="10.5" height="3.9"/>
			</g>
			<g>
				
					<rect x="63.9" y="405" transform="matrix(0.6775 -0.7355 0.7355 0.6775 -277.0126 182.1324)" fill="#BE8A53" width="10.5" height="3.9"/>
				
					<rect x="73.6" y="394.6" transform="matrix(0.677 -0.736 0.736 0.677 -266.356 186.0563)" fill="#BE8A53" width="10.5" height="3.9"/>
				<polygon fill="#BE8A53" points="93.4,383.5 86.3,391.2 83.5,388.6 90.6,380.9 				"/>
				
					<rect x="92.8" y="373.7" transform="matrix(0.6771 -0.7359 0.7359 0.6771 -244.7343 193.4184)" fill="#BE8A53" width="10.5" height="3.9"/>
				
					<rect x="102.4" y="363.2" transform="matrix(0.6772 -0.7358 0.7358 0.6772 -233.915 197.0798)" fill="#BE8A53" width="10.5" height="3.9"/>
				
					<rect x="112" y="352.8" transform="matrix(0.677 -0.736 0.736 0.677 -223.1597 200.8697)" fill="#BE8A53" width="10.5" height="3.9"/>
			</g>
			<g>
				
					<rect x="65.9" y="416.5" transform="matrix(0.6771 -0.7359 0.7359 0.6771 -284.9208 187.4411)" fill="#BE8A53" width="10.5" height="3.9"/>
				
					<rect x="75.5" y="406" transform="matrix(0.6773 -0.7357 0.7357 0.6773 -274.0704 191.0561)" fill="#BE8A53" width="10.5" height="3.9"/>
				<polygon fill="#BE8A53" points="95.3,394.9 88.2,402.7 85.4,400.1 92.5,392.3 				"/>
				
					<rect x="94.7" y="385.1" transform="matrix(0.6772 -0.7358 0.7358 0.6772 -252.5 198.4981)" fill="#BE8A53" width="10.5" height="3.8"/>
				
					<rect x="104.4" y="374.7" transform="matrix(0.677 -0.7359 0.7359 0.677 -241.7499 202.2905)" fill="#BE8A53" width="10.5" height="3.8"/>
				
					<rect x="114" y="364.2" transform="matrix(0.6771 -0.7359 0.7359 0.6771 -230.9301 205.953)" fill="#BE8A53" width="10.5" height="3.8"/>
			</g>
			<g>
				
					<rect x="76.2" y="416.3" transform="matrix(0.6769 -0.736 0.736 0.6769 -281.5436 195.111)" fill="#BE8A53" width="10.5" height="3.9"/>
				
					<rect x="85.9" y="405.9" transform="matrix(0.6771 -0.7359 0.7359 0.6771 -270.6819 198.7113)" fill="#BE8A53" width="10.5" height="3.9"/>
				<polygon fill="#BE8A53" points="105.7,394.8 98.6,402.5 95.7,399.9 102.9,392.2 				"/>
				
					<rect x="105.1" y="385" transform="matrix(0.6769 -0.736 0.736 0.6769 -249.1362 206.2107)" fill="#BE8A53" width="10.5" height="3.9"/>
				<polygon fill="#BE8A53" points="124.9,373.9 117.8,381.6 115,379 122.1,371.3 				"/>
				
					<rect x="124.3" y="364.1" transform="matrix(0.6771 -0.7359 0.7359 0.6771 -227.4935 213.5274)" fill="#BE8A53" width="10.5" height="3.8"/>
			</g>
			<g>
				<polygon fill="#BE8A53" points="88.4,427.2 81.3,434.9 78.5,432.3 85.6,424.5 				"/>
				
					<rect x="87.8" y="417.3" transform="matrix(0.6771 -0.7359 0.7359 0.6771 -278.4763 203.8391)" fill="#BE8A53" width="10.5" height="3.9"/>
				
					<rect x="97.4" y="406.9" transform="matrix(0.6772 -0.7358 0.7358 0.6772 -267.653 207.4946)" fill="#BE8A53" width="10.5" height="3.9"/>
				
					<rect x="107" y="396.4" transform="matrix(0.6775 -0.7355 0.7355 0.6775 -256.7846 211.0535)" fill="#BE8A53" width="10.5" height="3.9"/>
				<polygon fill="#BE8A53" points="126.9,385.3 119.8,393.1 116.9,390.5 124,382.7 				"/>
				
					<rect x="126.3" y="375.5" transform="matrix(0.6775 -0.7355 0.7355 0.6775 -235.2036 218.4606)" fill="#BE8A53" width="10.5" height="3.8"/>
			</g>
			<g>
				
					<rect x="88.5" y="427.7" transform="matrix(0.6771 -0.7359 0.7359 0.6771 -285.8439 207.722)" fill="#BE8A53" width="10.5" height="3.9"/>
				<polygon fill="#BE8A53" points="108.4,416.6 101.3,424.3 98.4,421.7 105.5,414 				"/>
				
					<rect x="107.8" y="406.8" transform="matrix(0.6772 -0.7358 0.7358 0.6772 -264.2213 215.0737)" fill="#BE8A53" width="10.5" height="3.9"/>
				
					<rect x="117.4" y="396.3" transform="matrix(0.6765 -0.7364 0.7364 0.6765 -253.5898 219.121)" fill="#BE8A53" width="10.5" height="3.9"/>
				<polygon fill="#BE8A53" points="137.2,385.2 130.1,392.9 127.3,390.3 134.4,382.6 				"/>
				
					<rect x="136.6" y="375.4" transform="matrix(0.6777 -0.7353 0.7353 0.6777 -231.7337 225.9405)" fill="#BE8A53" width="10.5" height="3.9"/>
			</g>
			<g>
				
					<rect x="90.5" y="439.1" transform="matrix(0.6771 -0.7359 0.7359 0.6771 -293.632 212.8413)" fill="#BE8A53" width="10.5" height="3.9"/>
				
					<rect x="100.1" y="428.7" transform="matrix(0.677 -0.736 0.736 0.677 -282.8622 216.5937)" fill="#BE8A53" width="10.5" height="3.9"/>
				
					<rect x="109.7" y="418.2" transform="matrix(0.6772 -0.7358 0.7358 0.6772 -272.0093 220.1918)" fill="#BE8A53" width="10.5" height="3.8"/>
				
					<rect x="119.3" y="407.7" transform="matrix(0.6775 -0.7355 0.7355 0.6775 -261.1375 223.7425)" fill="#BE8A53" width="10.5" height="3.9"/>
				<polygon fill="#BE8A53" points="139.2,396.7 132.1,404.4 129.2,401.8 136.3,394 				"/>
				
					<rect x="138.6" y="386.8" transform="matrix(0.677 -0.736 0.736 0.677 -239.6691 231.4194)" fill="#BE8A53" width="10.5" height="3.9"/>
			</g>
			<g>
				
					<rect x="102.2" y="440.4" transform="matrix(0.6771 -0.7359 0.7359 0.6771 -290.7864 221.8746)" fill="#BE8A53" width="10.5" height="3.9"/>
				
					<rect x="111.8" y="429.9" transform="matrix(0.6769 -0.736 0.736 0.6769 -280.0417 225.6767)" fill="#BE8A53" width="10.5" height="3.9"/>
				
					<rect x="121.4" y="419.5" transform="matrix(0.6768 -0.7361 0.7361 0.6768 -269.2689 229.4342)" fill="#BE8A53" width="10.5" height="3.9"/>
				
					<rect x="131" y="409" transform="matrix(0.6766 -0.7363 0.7363 0.6766 -258.5145 233.2495)" fill="#BE8A53" width="10.5" height="3.9"/>
				
					<rect x="140.7" y="398.6" transform="matrix(0.6768 -0.7361 0.7361 0.6768 -247.6593 236.8365)" fill="#BE8A53" width="10.5" height="3.9"/>
				
					<rect x="150.3" y="388.1" transform="matrix(0.6775 -0.7355 0.7355 0.6775 -236.7209 240.1846)" fill="#BE8A53" width="10.5" height="3.9"/>
			</g>
			<g>
				
					<rect x="104.1" y="451.8" transform="matrix(0.677 -0.7359 0.7359 0.677 -298.6051 227.0474)" fill="#BE8A53" width="10.5" height="3.9"/>
				
					<rect x="113.8" y="441.4" transform="matrix(0.6773 -0.7357 0.7357 0.6773 -287.7283 230.5979)" fill="#BE8A53" width="10.5" height="3.9"/>
				<polygon fill="#BE8A53" points="133.6,430.3 126.5,438 123.7,435.4 130.8,427.7 				"/>
				<polygon fill="#BE8A53" points="143.2,419.8 136.1,427.6 133.3,425 140.4,417.2 				"/>
				<polygon fill="#BE8A53" points="152.8,409.4 145.7,417.1 142.9,414.5 150,406.8 				"/>
				
					<rect x="152.2" y="399.6" transform="matrix(0.6771 -0.7359 0.7359 0.6771 -244.5915 245.5156)" fill="#BE8A53" width="10.5" height="3.9"/>
			</g>
			<g>
				
					<rect x="115.9" y="453.1" transform="matrix(0.6771 -0.7359 0.7359 0.6771 -295.7372 236.0375)" fill="#BE8A53" width="10.5" height="3.9"/>
				
					<rect x="125.5" y="442.6" transform="matrix(0.677 -0.736 0.736 0.677 -284.9862 239.8379)" fill="#BE8A53" width="10.5" height="3.9"/>
				
					<rect x="135.1" y="432.2" transform="matrix(0.677 -0.736 0.736 0.677 -274.1693 243.4989)" fill="#BE8A53" width="10.5" height="3.9"/>
				
					<rect x="144.7" y="421.7" transform="matrix(0.6767 -0.7362 0.7362 0.6767 -263.4405 247.3713)" fill="#BE8A53" width="10.5" height="3.9"/>
				<polygon fill="#BE8A53" points="164.6,410.7 157.4,418.4 154.6,415.8 161.7,408 				"/>
				<polygon fill="#BE8A53" points="174.2,400.2 167.1,407.9 164.2,405.3 171.3,397.6 				"/>
			</g>
			<g>
				
					<rect x="117.8" y="464.5" transform="matrix(0.6768 -0.7361 0.7361 0.6768 -303.6187 241.3332)" fill="#BE8A53" width="10.5" height="3.9"/>
				
					<rect x="127.4" y="454.1" transform="matrix(0.6771 -0.7359 0.7359 0.6771 -292.7297 244.862)" fill="#BE8A53" width="10.5" height="3.9"/>
				
					<rect x="137" y="443.6" transform="matrix(0.6771 -0.7359 0.7359 0.6771 -281.9321 248.5636)" fill="#BE8A53" width="10.5" height="3.8"/>
				
					<rect x="146.7" y="433.2" transform="matrix(0.6775 -0.7355 0.7355 0.6775 -271.0406 252.0521)" fill="#BE8A53" width="10.5" height="3.9"/>
				
					<rect x="156.3" y="422.7" transform="matrix(0.6776 -0.7354 0.7354 0.6776 -260.2267 255.6904)" fill="#BE8A53" width="10.5" height="3.8"/>
				
					<rect x="165.9" y="412.3" transform="matrix(0.6768 -0.7361 0.7361 0.6768 -249.6047 259.8485)" fill="#BE8A53" width="10.5" height="3.9"/>
			</g>
		</g>
	</g>
</g>
<g>
	<g>
		<polygon fill="#F7F0C9" points="141.4,360.2 90.1,252.7 128.8,211.7 187.6,338.8 		"/>
		<polyline fill="#C7C1AE" points="128.8,211.7 184.4,205.8 234,316.6 187.6,338.8 		"/>
	</g>
	<g>
		<g>
			<g>
				<g>
					<polygon fill="#4FA0CA" points="154.8,234.7 140.5,218.6 148.3,235.4 					"/>
					<polygon fill="#88B3D5" points="154.9,234.7 147,217.5 140.4,218.2 140.5,218.6 154.8,234.7 					"/>
				</g>
				<g>
					<polygon fill="#4FA0CA" points="166.6,233.3 152.8,217.4 160.4,234 					"/>
					<polygon fill="#88B3D5" points="166.8,233.3 159,216.3 152.6,217.1 152.8,217.4 166.6,233.3 					"/>
				</g>
				<g>
					<polygon fill="#4FA0CA" points="177.7,231.9 164.2,216.3 171.7,232.6 					"/>
					<polygon fill="#88B3D5" points="177.9,231.9 170.2,215.3 164.1,216 164.2,216.3 177.7,231.9 					"/>
				</g>
				<g>
					<polygon fill="#4FA0CA" points="188.7,230.2 175.5,214.8 182.8,230.8 					"/>
					<polygon fill="#88B3D5" points="188.8,230.2 181.3,213.8 175.3,214.5 175.5,214.8 188.7,230.2 					"/>
				</g>
			</g>
			<g>
				<g>
					<polygon fill="#4FA0CA" points="166.3,259.8 152.2,244.1 160,260.8 					"/>
					<polygon fill="#88B3D5" points="166.4,259.8 158.6,242.7 152.1,243.7 152.2,244.1 166.3,259.8 					"/>
				</g>
				<g>
					<polygon fill="#4FA0CA" points="177.9,258 164.3,242.5 171.8,258.9 					"/>
					<polygon fill="#88B3D5" points="178.1,258 170.3,241.2 164.1,242.2 164.3,242.5 177.9,258 					"/>
				</g>
				<g>
					<polygon fill="#4FA0CA" points="188.8,256.3 175.5,241 182.9,257.2 					"/>
					<polygon fill="#88B3D5" points="188.9,256.3 181.4,239.7 175.3,240.7 175.5,241 188.8,256.3 					"/>
				</g>
				<g>
					<polygon fill="#4FA0CA" points="199.5,254.1 186.5,239 193.8,255 					"/>
					<polygon fill="#88B3D5" points="199.6,254.1 192.2,237.8 186.4,238.7 186.5,239 199.5,254.1 					"/>
				</g>
			</g>
		</g>
		<g>
			<g>
				<g>
					<polygon fill="#4FA0CA" points="178.1,285 164.1,269.4 171.8,286.2 					"/>
					<polygon fill="#88B3D5" points="178.2,284.9 170.4,267.8 163.9,269.1 164.1,269.4 178.1,285 					"/>
				</g>
				<g>
					<polygon fill="#4FA0CA" points="189.5,282.7 176,267.4 183.5,283.8 					"/>
					<polygon fill="#88B3D5" points="189.7,282.6 182,265.9 175.9,267.1 176,267.4 189.5,282.7 					"/>
				</g>
				<g>
					<polygon fill="#4FA0CA" points="200.1,280.5 187,265.6 194.3,281.7 					"/>
					<polygon fill="#88B3D5" points="200.2,280.5 192.7,264.1 186.9,265.3 187,265.6 200.1,280.5 					"/>
				</g>
				<g>
					<polygon fill="#4FA0CA" points="210.4,278 197.7,263.3 204.8,279.1 					"/>
					<polygon fill="#88B3D5" points="210.5,278 203.2,262 197.6,263 197.7,263.3 210.4,278 					"/>
				</g>
			</g>
			<g>
				<g>
					<polygon fill="#4FA0CA" points="189.6,309.9 175.8,294.8 183.5,311.4 					"/>
					<polygon fill="#88B3D5" points="189.7,309.9 181.9,292.9 175.6,294.4 175.8,294.8 189.6,309.9 					"/>
				</g>
				<g>
					<polygon fill="#4FA0CA" points="200.7,307.1 187.4,292.2 194.8,308.5 					"/>
					<polygon fill="#88B3D5" points="200.8,307 193.2,290.4 187.2,291.9 187.4,292.2 200.7,307.1 					"/>
				</g>
				<g>
					<polygon fill="#4FA0CA" points="211,304.4 198.1,289.9 205.4,305.8 					"/>
					<polygon fill="#88B3D5" points="211.1,304.4 203.7,288.1 198,289.6 198.1,289.9 211,304.4 					"/>
				</g>
				<g>
					<polygon fill="#4FA0CA" points="221,301.4 208.5,287.1 215.6,302.7 					"/>
					<polygon fill="#88B3D5" points="221.1,301.3 213.8,285.4 208.4,286.8 208.5,287.1 221,301.4 					"/>
				</g>
			</g>
		</g>
	</g>
</g>
<g>
	<g>
		<polygon fill="#F7F0C9" points="511.7,426.7 617.1,390.6 651,431.1 526.5,472 		"/>
		<polyline fill="#C7C1AE" points="651,431.1 650.5,483.4 542.2,517.4 526.5,472 		"/>
	</g>
	<g>
		<g>
			<g>
				<g>
					<polygon fill="#4FA0CA" points="626.8,452.7 643.4,441.2 626.8,446.6 					"/>
					<polygon fill="#88B3D5" points="626.8,452.8 643.7,447.3 643.7,441.1 643.4,441.2 626.8,452.7 					"/>
				</g>
				<g>
					<polygon fill="#4FA0CA" points="626.9,463.9 643.1,452.7 626.9,458 					"/>
					<polygon fill="#88B3D5" points="626.9,464 643.4,458.6 643.4,452.6 643.1,452.7 626.9,463.9 					"/>
				</g>
				<g>
					<polygon fill="#4FA0CA" points="626.9,474.3 642.9,463.5 626.9,468.6 					"/>
					<polygon fill="#88B3D5" points="626.9,474.4 643.2,469.2 643.2,463.4 642.9,463.5 626.9,474.3 					"/>
				</g>
				<g>
					<polygon fill="#4FA0CA" points="627.4,484.6 643.1,474.1 627.4,479.1 					"/>
					<polygon fill="#88B3D5" points="627.4,484.8 643.4,479.6 643.4,474 643.1,474.1 627.4,484.6 					"/>
				</g>
			</g>
			<g>
				<g>
					<polygon fill="#4FA0CA" points="602.2,460.7 618.4,449.3 602,454.7 					"/>
					<polygon fill="#88B3D5" points="602.2,460.8 619,455.3 618.7,449.2 618.4,449.3 602.2,460.7 					"/>
				</g>
				<g>
					<polygon fill="#4FA0CA" points="602.7,471.7 618.6,460.7 602.5,465.9 					"/>
					<polygon fill="#88B3D5" points="602.7,471.8 619.1,466.5 618.9,460.6 618.6,460.7 602.7,471.7 					"/>
				</g>
				<g>
					<polygon fill="#4FA0CA" points="603.1,482 618.8,471.2 602.9,476.4 					"/>
					<polygon fill="#88B3D5" points="603.1,482.1 619.3,476.9 619.1,471.1 618.8,471.2 603.1,482 					"/>
				</g>
				<g>
					<polygon fill="#4FA0CA" points="604,492.1 619.4,481.7 603.8,486.7 					"/>
					<polygon fill="#88B3D5" points="604,492.2 619.9,487.1 619.7,481.6 619.4,481.7 604,492.1 					"/>
				</g>
			</g>
		</g>
		<g>
			<g>
				<g>
					<polygon fill="#4FA0CA" points="577.6,468.9 593.6,457.6 577.2,463 					"/>
					<polygon fill="#88B3D5" points="577.6,469.1 594.4,463.6 593.9,457.5 593.6,457.6 577.6,468.9 					"/>
				</g>
				<g>
					<polygon fill="#4FA0CA" points="578.5,479.8 594.1,468.9 578.1,474.1 					"/>
					<polygon fill="#88B3D5" points="578.5,479.9 594.9,474.6 594.5,468.8 594.1,468.9 578.5,479.8 					"/>
				</g>
				<g>
					<polygon fill="#4FA0CA" points="579.4,489.8 594.7,479.3 578.9,484.4 					"/>
					<polygon fill="#88B3D5" points="579.4,489.9 595.4,484.8 595,479.2 594.7,479.3 579.4,489.8 					"/>
				</g>
				<g>
					<polygon fill="#4FA0CA" points="580.6,499.6 595.6,489.5 580.2,494.4 					"/>
					<polygon fill="#88B3D5" points="580.6,499.7 596.3,494.7 595.9,489.4 595.6,489.5 580.6,499.6 					"/>
				</g>
			</g>
			<g>
				<g>
					<polygon fill="#4FA0CA" points="553.2,476.9 568.8,465.7 552.4,471 					"/>
					<polygon fill="#88B3D5" points="553.2,477 569.8,471.6 569.1,465.6 568.8,465.7 553.2,476.9 					"/>
				</g>
				<g>
					<polygon fill="#4FA0CA" points="554.6,487.5 569.9,476.7 553.9,481.9 					"/>
					<polygon fill="#88B3D5" points="554.7,487.6 570.9,482.3 570.2,476.6 569.9,476.7 554.6,487.5 					"/>
				</g>
				<g>
					<polygon fill="#4FA0CA" points="556,497.4 570.9,487 555.3,492 					"/>
					<polygon fill="#88B3D5" points="556,497.4 571.9,492.3 571.2,486.9 570.9,487 556,497.4 					"/>
				</g>
				<g>
					<polygon fill="#4FA0CA" points="557.7,507 572.3,496.9 557.1,501.8 					"/>
					<polygon fill="#88B3D5" points="557.8,507 573.3,502 572.6,496.8 572.3,496.9 557.7,507 					"/>
				</g>
			</g>
		</g>
	</g>
</g>
<g>
	<path fill="#727CB9" d="M386.9,111c0.4-1.9-1.8-3.2-6.1-4.1c-4.3-0.9-6.4-0.6-6.8,1.3l-10.2,35.9l15.5,3.2L386.9,111L386.9,111z"/>
	<path fill="#8DA2CC" d="M371.3,186.3c4.4-21.4,20.1-41.5,20.1-41.5l-0.4-0.1c0.1-0.2,0.2-0.4,0.2-0.7c0.8-4-6.8-9-17.1-11.1
		c-10.3-2.1-19.3-0.6-20.1,3.4c0,0.2-0.1,0.5-0.1,0.7l-0.1,0c0,0,6.4,24.7,2,46c-4.4,21.4-44,84.9-44,84.9l32.9,7.2l0.3,0.1
		l32.6,5.3C377.6,280.6,366.9,207.6,371.3,186.3z"/>
	<g>
		<path fill="#727CB9" d="M372.6,180.9c5.6-19.2,18.7-36.1,18.7-36.1l-0.4-0.1c0.1-0.2,0.2-0.4,0.2-0.7c0.8-4-6.8-9-17.1-11.1
			c-10.3-2.1-19.3-0.6-20.1,3.4c0,0.2-0.1,0.5-0.1,0.7l-0.1,0c0,0,5.4,20.8,2.9,40.7c2.6-0.3,5.5-0.2,8.4,0.5
			C367.8,178.7,370.4,179.7,372.6,180.9z"/>
	</g>
	<g>
		<path fill="none" stroke="#A0A1CD" stroke-width="2" stroke-miterlimit="10" d="M359.5,144.3c4.8-0.8,14.4-1.3,22.9,4.8"/>
		<path fill="none" stroke="#A0A1CD" stroke-width="2" stroke-miterlimit="10" d="M385.3,144.3c-10.4-8.7-23-6.6-26.6-5.7"/>
		<path fill="none" stroke="#A0A1CD" stroke-width="2" stroke-miterlimit="10" d="M360.7,162.2c4-0.1,8.9,0.5,13.9,2.9"/>
		<path fill="none" stroke="#A0A1CD" stroke-width="2" stroke-miterlimit="10" d="M377,159.6c-5.9-3.2-12-3.7-16.4-3.4"/>
		<path fill="none" stroke="#A0A1CD" stroke-width="2" stroke-miterlimit="10" d="M360.6,156.1c4.4-0.3,10.5,0.2,16.4,3.4"/>
		<path fill="none" stroke="#A0A1CD" stroke-width="2" stroke-miterlimit="10" d="M379.6,154.2c-7.1-4.4-14.6-4.6-19.5-4.1"/>
		<path fill="none" stroke="#A0A1CD" stroke-width="2" stroke-miterlimit="10" d="M360.1,150.2c4.8-0.5,12.3-0.3,19.5,4.1"/>
		<path fill="none" stroke="#A0A1CD" stroke-width="2" stroke-miterlimit="10" d="M382.4,149.1c-8.5-6.1-18.1-5.6-22.9-4.8"/>
	</g>
	<g>
		<path fill="#8DA2CC" d="M380.8,106.9c-4.3-0.9-6.4-0.6-6.8,1.3l-5.8,21.9c4.3-2.8,11.5-19.9,18.4-20.6
			C385.7,108.1,384,107.6,380.8,106.9z"/>
	</g>
</g>
<g>
	<polygon fill="#F7F0C9" points="303.8,365.2 241.4,369.7 230.6,219.2 292.4,207.4 	"/>
	<polygon fill="#C3B7C9" points="303.8,365.2 337.4,363.2 327,218 292.4,207.4 	"/>
	<g>
		<g>
			<g>
				<polygon fill="#4FA0CA" points="246.1,246.3 237.7,230.9 238.8,247.6 				"/>
				<polygon fill="#88B3D5" points="246.2,246.3 245,229 237.6,230.6 237.7,230.9 246.1,246.3 				"/>
			</g>
			<g>
				<polygon fill="#4FA0CA" points="260.1,243.7 251.4,228.2 252.6,245.1 				"/>
				<polygon fill="#88B3D5" points="260.3,243.7 259,226.2 251.4,227.8 251.4,228.2 260.1,243.7 				"/>
			</g>
			<g>
				<polygon fill="#4FA0CA" points="274.1,241.1 265.2,225.4 266.4,242.5 				"/>
				<polygon fill="#88B3D5" points="274.2,241.1 272.9,223.3 265.1,225.1 265.2,225.4 274.1,241.1 				"/>
			</g>
			<g>
				<polygon fill="#4FA0CA" points="288.9,237.9 279.7,222 281,239.3 				"/>
				<polygon fill="#88B3D5" points="289,237.9 287.7,219.9 279.7,221.6 279.7,222 288.9,237.9 				"/>
			</g>
		</g>
		<g>
			<g>
				<polygon fill="#4FA0CA" points="247.8,271.8 239.4,256.2 240.5,272.9 				"/>
				<polygon fill="#88B3D5" points="248,271.8 246.8,254.4 239.3,255.8 239.4,256.2 247.8,271.8 				"/>
			</g>
			<g>
				<polygon fill="#4FA0CA" points="261.9,269.6 253.2,253.8 254.4,270.7 				"/>
				<polygon fill="#88B3D5" points="262,269.5 260.8,251.9 253.2,253.4 253.2,253.8 261.9,269.6 				"/>
			</g>
			<g>
				<polygon fill="#4FA0CA" points="275.9,267.3 267,251.3 268.2,268.5 				"/>
				<polygon fill="#88B3D5" points="276.1,267.3 274.8,249.5 267,251 267,251.3 275.9,267.3 				"/>
			</g>
			<g>
				<polygon fill="#4FA0CA" points="290.8,264.5 281.6,248.3 282.8,265.7 				"/>
				<polygon fill="#88B3D5" points="291,264.5 289.6,246.4 281.6,247.9 281.6,248.3 290.8,264.5 				"/>
			</g>
		</g>
	</g>
	<g>
		<g>
			<g>
				<polygon fill="#4FA0CA" points="249.9,297.6 241.3,281.5 242.4,298.5 				"/>
				<polygon fill="#88B3D5" points="250,297.5 248.8,279.9 241.3,281.2 241.3,281.5 249.9,297.6 				"/>
			</g>
			<g>
				<polygon fill="#4FA0CA" points="264.1,295.7 255.3,279.5 256.5,296.6 				"/>
				<polygon fill="#88B3D5" points="264.3,295.6 263,277.9 255.3,279.2 255.3,279.5 264.1,295.7 				"/>
			</g>
			<g>
				<polygon fill="#4FA0CA" points="278.1,293.8 269.2,277.5 270.4,294.8 				"/>
				<polygon fill="#88B3D5" points="278.2,293.8 276.9,275.9 269.2,277.2 269.2,277.5 278.1,293.8 				"/>
			</g>
			<g>
				<polygon fill="#4FA0CA" points="292.7,291.3 283.7,274.9 284.9,292.3 				"/>
				<polygon fill="#88B3D5" points="292.9,291.3 291.6,273.3 283.6,274.6 283.7,274.9 292.7,291.3 				"/>
			</g>
		</g>
		<g>
			<g>
				<polygon fill="#4FA0CA" points="251.7,323.5 243,307.3 244.2,324.3 				"/>
				<polygon fill="#88B3D5" points="251.8,323.5 250.6,305.8 243,306.9 243,307.3 251.7,323.5 				"/>
			</g>
			<g>
				<polygon fill="#4FA0CA" points="265.9,321.8 257.1,305.5 258.3,322.7 				"/>
				<polygon fill="#88B3D5" points="266.1,321.8 264.8,304 257.1,305.1 257.1,305.5 265.9,321.8 				"/>
			</g>
			<g>
				<polygon fill="#4FA0CA" points="280,320.2 271,303.7 272.2,321 				"/>
				<polygon fill="#88B3D5" points="280.1,320.1 278.8,302.2 271,303.3 271,303.7 280,320.2 				"/>
			</g>
			<g>
				<polygon fill="#4FA0CA" points="294.7,317.9 285.6,301.3 286.8,318.8 				"/>
				<polygon fill="#88B3D5" points="294.8,317.9 293.5,299.8 285.5,301 285.6,301.3 294.7,317.9 				"/>
			</g>
		</g>
	</g>
</g>
<g>
	<path fill="#F65C9F" d="M67.8,201.9c-4.5,13.5-19.1,20.9-32.7,16.4c-13.5-4.5-20.9-19.1-16.4-32.7c4.5-13.5,19.1-20.9,32.7-16.4
		C65,173.7,72.4,188.3,67.8,201.9z"/>
	<polygon fill="#F65C9F" points="43.6,163.4 60.4,169 56.8,151.5 	"/>
	<polygon fill="#EF2D56" points="22,172.1 37.9,164.2 23,154.3 	"/>
	<polygon fill="#F65C9F" points="13,193.5 18.6,176.7 1.1,180.2 	"/>
	<polygon fill="#EF2D56" points="21.7,215 13.8,199.2 3.9,214 	"/>
	<polygon fill="#F65C9F" points="43.1,224.1 26.3,218.5 29.8,236 	"/>
	<polygon fill="#EF2D56" points="64.6,215.4 48.8,223.3 63.6,233.1 	"/>
	<polygon fill="#F65C9F" points="73.7,193.9 68.1,210.8 85.6,207.2 	"/>
	<polygon fill="#EF2D56" points="65,172.4 72.9,188.3 82.8,173.4 	"/>
</g>
<g>
	<path fill="#0A3F82" d="M583.9,51l-15.1-2.2c0,0-3.8-8.9-5.2-13.1c-1.4-4.2-2.1-12,7.6-1.4C580.9,44.8,583.9,51,583.9,51z"/>
	<path fill="#7578B2" d="M491.2,16.1c-0.2,1.6-2,2.7-4,2.5l-4.9-0.7c-2-0.3-3.4-1.9-3.1-3.5l0,0c0.2-1.6,2-2.7,4-2.5l4.9,0.7
		C490,12.9,491.4,14.5,491.2,16.1L491.2,16.1z"/>
	<path fill="#0A3F82" d="M517,41.1l-25.3-3.7c0,0-6.1-16.7-8.4-24.7c-2.3-7.9-3.2-22.5,12.8-2.9C512.2,29.3,517,41.1,517,41.1z"/>
	<path fill="#FFF7A8" d="M592.7,58.6c-1.5,10.1-93.7,1.5-110.2-1C466,55.2,453.9,45,455.4,35c1.5-10.1,16-16.3,32.5-13.9
		C504.4,23.5,594.2,48.5,592.7,58.6z"/>
	<path fill="#7DB6D6" d="M455.5,39c-0.3-1.3-0.3-2.7-0.1-4c1.5-10.1,16-16.3,32.5-13.9c16.5,2.4,106.3,27.4,104.8,37.5
		c-0.1,0.5-0.4,1-1,1.4L455.5,39z"/>
	<path fill="#7578B2" d="M511.6,62.5c-0.3,1.9-2.4,3.2-4.6,2.8l-5.7-0.8c-2.3-0.3-3.9-2.1-3.6-4l0,0c0.3-1.9,2.4-3.2,4.6-2.8
		l5.7,0.8C510.3,58.8,511.9,60.6,511.6,62.5L511.6,62.5z"/>
	<path fill="#7578B2" d="M519.7,75.4c-0.3,1.9-2.4,3.2-4.6,2.8l-5.7-0.8c-2.3-0.3-3.9-2.1-3.6-4l0,0c0.3-1.9,2.4-3.2,4.6-2.8
		l5.7,0.8C518.3,71.7,519.9,73.5,519.7,75.4L519.7,75.4z"/>
	<path fill="#FFFFFF" d="M487.7,39.8c-0.1,0.5-0.6,0.9-1.1,0.8l-3.8-0.6c-0.5-0.1-0.9-0.6-0.8-1.1l0.9-5.9c0.1-0.5,0.6-0.9,1.1-0.8
		l3.8,0.6c0.5,0.1,0.9,0.6,0.8,1.1L487.7,39.8z"/>
	<path fill="#FFFFFF" d="M498,41.3c-0.1,0.5-0.6,0.9-1.1,0.8l-3.8-0.6c-0.5-0.1-0.9-0.6-0.8-1.1l0.9-5.9c0.1-0.5,0.6-0.9,1.1-0.8
		l3.8,0.6c0.5,0.1,0.9,0.6,0.8,1.1L498,41.3z"/>
	<path fill="#FFFFFF" d="M508.3,42.8c-0.1,0.5-0.6,0.9-1.1,0.8l-3.8-0.6c-0.5-0.1-0.9-0.6-0.8-1.1l0.9-5.9c0.1-0.5,0.6-0.9,1.1-0.8
		l3.8,0.6c0.5,0.1,0.9,0.6,0.8,1.1L508.3,42.8z"/>
	<path fill="#FFFFFF" d="M518.6,44.3c-0.1,0.5-0.6,0.9-1.1,0.8l-3.8-0.6c-0.5-0.1-0.9-0.6-0.8-1.1l0.9-5.9c0.1-0.5,0.6-0.9,1.1-0.8
		l3.8,0.6c0.5,0.1,0.9,0.6,0.8,1.1L518.6,44.3z"/>
	<g>
		<path fill="#FFF9BC" d="M467.2,24.6c-5.5,2.5-9.2,6.5-9.9,11.3l15.2,2.2C473.5,30.3,470.5,26.5,467.2,24.6z"/>
	</g>
	<path fill="#0A3F82" d="M497.3,49.4l27.4,4c0,0,6.7,18.2,9.1,26.8c2.5,8.6,3.5,24.4-13.9,3.2C502.6,62.1,497.3,49.4,497.3,49.4z"/>
	<path fill="#0A3F82" d="M572.3,55.2l16.4,2.4c0,0,4.1,9.7,5.7,14.3c1.6,4.6,2.3,13-8.2,1.5C575.5,62,572.3,55.2,572.3,55.2z"/>
	<path fill="#7578B2" d="M574.3,50.4c0,0,9.1-20,11.7-18.9c5.7,2.4-2.2,22.5-2.2,22.5L574.3,50.4z"/>
</g>
<g>
	<polygon fill="#C7C1AE" points="536.9,333.3 530.8,327 583,278.6 586.7,282.1 	"/>
	<polygon fill="#C7C1AE" points="570,381.4 563.8,375.1 616.8,327.3 620.7,330.3 	"/>
	<polygon fill="#F7F0C9" points="490.3,411.7 446.3,367.2 510.6,303.5 561.6,341.2 	"/>
	<polygon fill="#C7C1AE" points="490.2,411.5 526.9,448.6 591.2,384.9 561.4,341 	"/>
	<polygon fill="#FB7460" points="560.7,341.7 508.1,303.5 515.3,296.3 567.9,334.5 	"/>
	<polygon fill="#FB7460" points="560.8,341.8 590.9,392.2 598.1,385 568,334.6 	"/>
	<g>
		<g>
			<polygon fill="#4FA0CA" points="549.7,375.6 557.3,355.8 544.7,368.2 			"/>
			<polygon fill="#88B3D5" points="549.8,375.7 562.3,363.2 557.5,355.6 557.3,355.8 549.7,375.6 			"/>
		</g>
		<g>
			<polygon fill="#4FA0CA" points="558.7,388.2 566.1,369.5 554.2,381.4 			"/>
			<polygon fill="#88B3D5" points="558.8,388.3 570.7,376.2 566.4,369.2 566.1,369.5 558.7,388.2 			"/>
		</g>
	</g>
</g>
<g>
	<g>
		<polygon fill="#F8ECA6" points="478.6,269.7 477.3,280.7 503.6,286.5 507.4,273.8 		"/>
		<polygon fill="#AEC8B9" points="507.4,273.8 529.1,283.7 525.5,294.5 503.6,286.5 		"/>
		<polygon fill="#B1584F" points="478.9,257.4 477.4,270.3 508.4,275.1 513.6,261.1 		"/>
		<polygon fill="#A82B2C" points="513.6,261.1 535.4,272.5 528.9,284.9 508.4,275.1 		"/>
		<polygon fill="#F7F0C9" points="421.1,266.4 392.4,380.6 474.3,396.4 500.8,281.2 		"/>
		<polygon fill="#C3DBC6" points="500.8,281.2 530.7,295.9 501.7,403 474.3,396.4 		"/>
		
			<rect x="508.6" y="313" transform="matrix(0.2433 -0.9699 0.9699 0.2433 84.1027 738.417)" fill="#39B4D0" width="13.4" height="4.7"/>
	</g>
	<g>
		<g>
			<polygon fill="#4FA0CA" points="430.2,300.7 426.3,282 422,299 			"/>
			<polygon fill="#88B3D5" points="430.4,300.8 434.8,283.2 426.4,281.6 426.3,282 430.2,300.7 			"/>
		</g>
		<g>
			<polygon fill="#4FA0CA" points="445.7,303.9 441.8,285.1 437.5,302.2 			"/>
			<polygon fill="#88B3D5" points="445.9,303.9 450.3,286.4 441.9,284.8 441.8,285.1 445.7,303.9 			"/>
		</g>
		<g>
			<polygon fill="#4FA0CA" points="460.8,307 456.9,288.2 452.5,305.2 			"/>
			<polygon fill="#88B3D5" points="460.9,307 465.4,289.4 457,287.9 456.9,288.2 460.8,307 			"/>
		</g>
		<g>
			<polygon fill="#4FA0CA" points="476.4,309.6 472.5,290.9 468.2,307.9 			"/>
			<polygon fill="#88B3D5" points="476.6,309.7 481,292.1 472.6,290.5 472.5,290.9 476.4,309.6 			"/>
		</g>
	</g>
	<g>
		<g>
			<polygon fill="#4FA0CA" points="423.7,326.5 419.8,307.8 415.4,324.8 			"/>
			<polygon fill="#88B3D5" points="423.8,326.6 428.3,309 419.8,307.4 419.8,307.8 423.7,326.5 			"/>
		</g>
		<g>
			<polygon fill="#4FA0CA" points="439.2,329.7 435.3,310.9 430.9,328 			"/>
			<polygon fill="#88B3D5" points="439.3,329.7 443.8,312.2 435.4,310.6 435.3,310.9 439.2,329.7 			"/>
		</g>
		<g>
			<polygon fill="#4FA0CA" points="454.2,332.8 450.3,314 446,331 			"/>
			<polygon fill="#88B3D5" points="454.4,332.8 458.8,315.2 450.4,313.7 450.3,314 454.2,332.8 			"/>
		</g>
		<g>
			<polygon fill="#4FA0CA" points="469.9,335.4 466,316.7 461.6,333.7 			"/>
			<polygon fill="#88B3D5" points="470,335.5 474.5,317.9 466,316.3 466,316.7 469.9,335.4 			"/>
		</g>
	</g>
</g>
<g>
	<polygon fill="#E7F5AC" points="35.3,524.3 73.9,550.1 130.7,469.1 89,441.2 	"/>
	<polygon fill="#F5CE89" points="130.6,469.3 89,441 58.7,396.3 103.9,400.1 148.9,432.1 	"/>
	<polygon fill="#312B90" points="57.6,393.8 60.3,389.1 109.1,391.7 110.5,401.9 59,400.7 	"/>
	<polygon fill="#6583BC" points="0,477.7 58.9,391.9 94,442.6 33.2,531.5 	"/>
	<g>
		<path fill="#39B4D0" d="M122.1,421.8L112,442.9c0,0-25.4-17.2-18.4-27.5C100.6,405.1,122.1,421.8,122.1,421.8z"/>
		<g>
			<line fill="none" stroke="#9CD9E5" stroke-width="2" stroke-miterlimit="10" x1="101.6" y1="433.3" x2="110.6" y2="416.3"/>
			<line fill="none" stroke="#9CD9E5" stroke-width="2" stroke-miterlimit="10" x1="96.9" y1="416.4" x2="116.9" y2="430.1"/>
		</g>
	</g>
	<g>
		<g>
			<path fill="#8DA2CC" d="M38.5,516.3l-4.9,3.5l-2.3-3.3l4.9-3.5L38.5,516.3z M33.9,509.8l-4.9,3.5l-2.3-3.3l4.9-3.5L33.9,509.8z
				 M29.3,503.3l-4.9,3.5l-2.3-3.3L27,500L29.3,503.3z M24.7,496.7l-4.9,3.5l-2.3-3.3l4.9-3.5L24.7,496.7z M20.1,490.2l-4.9,3.5
				l-2.3-3.3l4.9-3.5L20.1,490.2z M15.4,483.7l-4.9,3.5l-2.3-3.3l4.9-3.5L15.4,483.7z M10.8,477.1l-4.9,3.5l-2.3-3.3l4.9-3.5
				L10.8,477.1z"/>
		</g>
		<g>
			<path fill="#8DA2CC" d="M45.5,506.3l-4.9,3.5l-2.3-3.3l4.9-3.5L45.5,506.3z M40.9,499.8l-4.9,3.5l-2.3-3.3l4.9-3.5L40.9,499.8z
				 M36.2,493.2l-4.9,3.5l-2.3-3.3l4.9-3.5L36.2,493.2z M31.6,486.7l-4.9,3.5l-2.3-3.3l4.9-3.5L31.6,486.7z M27,480.2l-4.9,3.5
				l-2.3-3.3l4.9-3.5L27,480.2z M22.4,473.6l-4.9,3.5l-2.3-3.3l4.9-3.5L22.4,473.6z M17.8,467.1l-4.9,3.5l-2.3-3.3l4.9-3.5
				L17.8,467.1z"/>
		</g>
		<g>
			<path fill="#8DA2CC" d="M52.4,496.3l-4.9,3.5l-2.3-3.3l4.9-3.5L52.4,496.3z M47.8,489.7l-4.9,3.5l-2.3-3.3l4.9-3.5L47.8,489.7z
				 M43.2,483.2l-4.9,3.5l-2.3-3.3l4.9-3.5L43.2,483.2z M38.6,476.7l-4.9,3.5l-2.3-3.3l4.9-3.5L38.6,476.7z M34,470.1l-4.9,3.5
				l-2.3-3.3l4.9-3.5L34,470.1z M29.4,463.6l-4.9,3.5l-2.3-3.3l4.9-3.5L29.4,463.6z M24.7,457.1l-4.9,3.5l-2.3-3.3l4.9-3.5
				L24.7,457.1z"/>
		</g>
		<g>
			<path fill="#8DA2CC" d="M59.4,486.2l-4.9,3.5l-2.3-3.3l4.9-3.5L59.4,486.2z M54.8,479.7l-4.9,3.5l-2.3-3.3l4.9-3.5L54.8,479.7z
				 M50.2,473.2l-4.9,3.5l-2.3-3.3l4.9-3.5L50.2,473.2z M45.6,466.6l-4.9,3.5l-2.3-3.3l4.9-3.5L45.6,466.6z M40.9,460.1l-4.9,3.5
				l-2.3-3.3l4.9-3.5L40.9,460.1z M36.3,453.6l-4.9,3.5l-2.3-3.3l4.9-3.5L36.3,453.6z M31.7,447l-4.9,3.5l-2.3-3.3l4.9-3.5L31.7,447
				z"/>
		</g>
		<g>
			<path fill="#8DA2CC" d="M66.4,476.2l-4.9,3.5l-2.3-3.3l4.9-3.5L66.4,476.2z M61.8,469.7l-4.9,3.5l-2.3-3.3l4.9-3.5L61.8,469.7z
				 M57.1,463.2l-4.9,3.5l-2.3-3.3l4.9-3.5L57.1,463.2z M52.5,456.6l-4.9,3.5l-2.3-3.3l4.9-3.5L52.5,456.6z M47.9,450.1l-4.9,3.5
				l-2.3-3.3l4.9-3.5L47.9,450.1z M43.3,443.6l-4.9,3.5l-2.3-3.3l4.9-3.5L43.3,443.6z M38.7,437l-4.9,3.5l-2.3-3.3l4.9-3.5L38.7,437
				z"/>
		</g>
		<g>
			<path fill="#8DA2CC" d="M73.3,466.2l-4.9,3.5l-2.3-3.3l4.9-3.5L73.3,466.2z M68.7,459.7l-4.9,3.5l-2.3-3.3l4.9-3.5L68.7,459.7z
				 M64.1,453.1l-4.9,3.5l-2.3-3.3l4.9-3.5L64.1,453.1z M59.5,446.6l-4.9,3.5l-2.3-3.3l4.9-3.5L59.5,446.6z M54.9,440.1l-4.9,3.5
				l-2.3-3.3l4.9-3.5L54.9,440.1z M50.2,433.5l-4.9,3.5l-2.3-3.3l4.9-3.5L50.2,433.5z M45.6,427l-4.9,3.5l-2.3-3.3l4.9-3.5L45.6,427
				z"/>
		</g>
		<g>
			<path fill="#8DA2CC" d="M80.3,456.2l-4.9,3.5l-2.3-3.3l4.9-3.5L80.3,456.2z M75.7,449.6l-4.9,3.5l-2.3-3.3l4.9-3.5L75.7,449.6z
				 M71.1,443.1l-4.9,3.5l-2.3-3.3l4.9-3.5L71.1,443.1z M66.4,436.6l-4.9,3.5l-2.3-3.3l4.9-3.5L66.4,436.6z M61.8,430l-4.9,3.5
				l-2.3-3.3l4.9-3.5L61.8,430z M57.2,423.5l-4.9,3.5l-2.3-3.3l4.9-3.5L57.2,423.5z M52.6,417l-4.9,3.5l-2.3-3.3l4.9-3.5L52.6,417z"
				/>
		</g>
		<g>
			<path fill="#8DA2CC" d="M87.3,446.1l-4.9,3.5l-2.3-3.3l4.9-3.5L87.3,446.1z M82.6,439.6l-4.9,3.5l-2.3-3.3l4.9-3.5L82.6,439.6z
				 M78,433.1l-4.9,3.5l-2.3-3.3l4.9-3.5L78,433.1z M73.4,426.5l-4.9,3.5l-2.3-3.3l4.9-3.5L73.4,426.5z M68.8,420l-4.9,3.5l-2.3-3.3
				l4.9-3.5L68.8,420z M64.2,413.5l-4.9,3.5l-2.3-3.3l4.9-3.5L64.2,413.5z M59.6,406.9l-4.9,3.5l-2.3-3.3l4.9-3.5L59.6,406.9z"/>
		</g>
	</g>
	<g>
		<polygon fill="#312B90" points="29.9,453.3 46.5,436.4 62.1,461.3 		"/>
		<path fill="#F6F3AA" d="M46.6,485.5l16.1-23.8c0,0-26.2-17.3-33.6-6.6C21.8,465.9,46.6,485.5,46.6,485.5z"/>
		<g>
			<path fill="#39B4D0" d="M47.4,481.5l12.1-18.4c0,0-22-11.8-26.5-5.6C27.7,464.7,47.4,481.5,47.4,481.5z"/>
			<g>
				<line fill="none" stroke="#9CD9E5" stroke-width="2" stroke-miterlimit="10" x1="47.7" y1="459.5" x2="39.7" y2="471.8"/>
				<line fill="none" stroke="#9CD9E5" stroke-width="2" stroke-miterlimit="10" x1="34.9" y1="459.1" x2="52" y2="471.5"/>
			</g>
		</g>
	</g>
</g>
<g>
	<g>
		<polygon fill="#F8ECA6" points="246.7,410.1 166.2,445.1 135.4,375.4 215.9,340.4 		"/>
		<polygon fill="#E7F5AC" points="303,385.6 246.7,410.1 202.4,309.5 225,299.1 261,290.3 		"/>
		<polygon fill="#41824F" points="146,333.1 225.1,298.6 219.8,344 131.9,378.5 		"/>
	</g>
	<g>
		
			<rect x="137.4" y="347.7" transform="matrix(0.9212 -0.3891 0.3891 0.9212 -121.57 97.0308)" fill="#9EBD94" width="82.7" height="2"/>
		
			<rect x="139.4" y="341" transform="matrix(0.9189 -0.3945 0.3945 0.9189 -120.2884 98.8451)" fill="#9EBD94" width="81.7" height="2"/>
		
			<rect x="139.4" y="341" transform="matrix(0.9189 -0.3945 0.3945 0.9189 -120.2884 98.8451)" fill="#9EBD94" width="81.7" height="2"/>
		
			<rect x="141.3" y="334.2" transform="matrix(0.9167 -0.3995 0.3995 0.9167 -118.7904 100.5026)" fill="#9EBD94" width="80.7" height="2"/>
		
			<rect x="135.5" y="354.4" transform="matrix(0.9234 -0.3838 0.3838 0.9234 -122.8157 95.2822)" fill="#9EBD94" width="83.7" height="2"/>
		
			<rect x="137.4" y="347.7" transform="matrix(0.9212 -0.3891 0.3891 0.9212 -121.57 97.0308)" fill="#9EBD94" width="82.7" height="2"/>
		
			<rect x="143.3" y="327.5" transform="matrix(0.9144 -0.4047 0.4047 0.9144 -117.2593 102.2296)" fill="#9EBD94" width="79.7" height="2"/>
		
			<rect x="145.3" y="320.7" transform="matrix(0.912 -0.4101 0.4101 0.912 -115.6918 104.0302)" fill="#9EBD94" width="78.7" height="2"/>
		
			<rect x="141.3" y="334.2" transform="matrix(0.9167 -0.3995 0.3995 0.9167 -118.7904 100.5026)" fill="#9EBD94" width="80.7" height="2"/>
		
			<rect x="143.3" y="327.5" transform="matrix(0.9144 -0.4047 0.4047 0.9144 -117.2593 102.2296)" fill="#9EBD94" width="79.7" height="2"/>
	</g>
</g>
<g>
	<polygon fill="#FDB783" points="436.8,376.5 366.8,373.2 370,305.8 446.6,309.4 	"/>
	<path fill="#FCA66A" d="M374.6,305.8c0,0-5.1-45.1-19.9-52.1c-14.8-7-44.4,36.2-44.4,36.2l-1.2,75.1l62.6,6.2L374.6,305.8z"/>
	<g>
		
			<rect x="398.9" y="247.8" transform="matrix(0.1484 -0.9889 0.9889 0.1484 98.7308 627.8458)" fill="#A0642F" width="30" height="17.5"/>
		
			<rect x="413.4" y="227.5" transform="matrix(0.1487 -0.9889 0.9889 0.1487 116.8587 616.3016)" fill="#8B5728" width="6" height="25.5"/>
	</g>
	<path fill="#EF5757" d="M351.2,249.7l89.4,15.3l18.1,51.9l-83.2-8.4C375.4,308.6,368.5,251.6,351.2,249.7z"/>
	<polygon fill="#CB2526" points="385.1,272.1 399.7,269.8 387.8,292.3 	"/>
	<polygon fill="#CB2526" points="419.9,276.8 432.4,274.9 422.5,295.7 	"/>
	<path fill="#F8ECA6" d="M387.8,292.3l16.9,0.3c0,0,4.3-21.5-5.1-22.8C390.2,268.6,387.8,292.3,387.8,292.3z"/>
	<path fill="#F8ECA6" d="M422.5,295.7l14.3,0.7c0,0,5.1-20.7-4.4-21.4C423,274.2,422.5,295.7,422.5,295.7z"/>
	<path fill="none" stroke="#CB2526" stroke-width="6.1353" stroke-linecap="round" d="M310,289.9c0,0,29.5-43.2,44.3-36.2
		c14.8,7,19.9,52.1,19.9,52.1"/>
	<path fill="#8DD3C5" d="M391.2,292.7l10.5,0.3c0,0,4.6-18.2-2-18.5C393.1,274.2,391.2,292.7,391.2,292.7z"/>
	<path fill="#8DD3C5" d="M424.4,296.3l10.5,0.3c0,0,4.6-18.2-2-18.5C426.3,277.7,424.4,296.3,424.4,296.3z"/>
	<g>
		<polygon fill="#A3DBCE" points="324.5,292.9 362.5,298.2 360.5,338.9 321.5,334.5 		"/>
		<line fill="none" stroke="#A15008" stroke-width="2.9988" stroke-miterlimit="10" x1="342.9" y1="295.5" x2="341" y2="336.1"/>
		<path fill="#727CB9" d="M362.2,299.5c0,0-15.9,7-2.4,17.6c0,0-18.7,9.1,0.5,21.8L362.2,299.5z"/>
		<path fill="#727CB9" d="M324.3,293.5c0,0,13.1,8.4,0.3,17.7c0,0,15.3,10.7-2.6,21.6L324.3,293.5z"/>
		<polygon fill="none" stroke="#A15008" stroke-width="2.9988" stroke-miterlimit="10" points="324.5,292.9 362.5,298.2 
			360.5,338.9 321.5,334.5 		"/>
	</g>
</g>
<g>
	<path fill="#A3DBCE" d="M449.8,210.5c0.1-0.7,0.2-1.4,0.2-2.1c0-5.5-4.5-10-10-10c-5.5,0-10,4.5-10,10c0,0.1,0,0.1,0,0.2
		c-4.6,0.9-8,5-8,9.8c0,5.5,4.5,10,10,10c2.4,0,4.6-0.9,6.3-2.3c1.8,2.2,4.6,3.7,7.7,3.7c5.5,0,10-4.5,10-10
		C456,215.6,453.5,212,449.8,210.5z"/>
	<circle fill="#A3DBCE" cx="476.7" cy="195.1" r="10"/>
</g>
<path fill="#6C8054" d="M642.1,606.1c3.8-5.4,2.5-12.9-3-16.7c-2-1.4-4.2-2.1-6.4-2.1c-0.6-2.9-2.3-5.5-4.9-7.3
	c-3.7-2.6-8.3-2.8-12.1-0.9c-0.8-2.2-2.3-4.2-4.4-5.7c-5.4-3.8-12.9-2.5-16.7,3c-0.6,0.8-1,1.7-1.4,2.6c-5.1-2.3-11.3-0.7-14.7,4.1
	c-3.8,5.4-2.5,12.9,3,16.7c1.8,1.2,3.7,1.9,5.7,2.1c-0.2,4,1.6,7.9,5.1,10.3c4.3,3,9.9,2.8,13.9-0.1c1.2,0.8,2.5,1.3,3.9,1.6
	c0.5,3.1,2.2,6,5,7.9c5.4,3.8,12.9,2.5,16.7-3c1.6-2.2,2.2-4.8,2.1-7.4C637.2,610.6,640.2,608.9,642.1,606.1z"/>
<path fill="#6C8054" d="M596.1,575.1c2.7,0.5,5.3,0,7.6-1.2c1.7,2.7,4.5,4.7,7.9,5.3c6.5,1.2,12.8-3.2,13.9-9.7
	c0.4-2.4,0.1-4.7-0.8-6.7c2.3-1.8,4.1-4.4,4.6-7.5c0.8-4.4-1-8.7-4.2-11.4c1.7-1.7,2.9-3.9,3.3-6.4c1.2-6.5-3.2-12.8-9.7-13.9
	c-1-0.2-2-0.2-2.9-0.1c-0.1-5.6-4.1-10.6-9.9-11.6c-5.5-1-10.7,1.9-12.9,6.7c-5.3-3.7-12.7-2.4-16.5,2.8c-3.9,5.4-2.7,12.9,2.7,16.8
	c1.9,1.3,4,2.1,6.1,2.2c0.5,3.7,2.8,6.9,6,8.7c-0.2,1.4-0.1,2.9,0.2,4.2c-2.6,1.8-4.5,4.5-5.1,7.8
	C585.3,567.7,589.6,574,596.1,575.1z"/>
<g>
	<path fill="#85C83B" d="M642.6,602.3c2.2,1.4,5,1.7,7.7,0.8c4.2-1.4,6.6-5.6,6.1-9.8c0.3-0.1,0.6-0.2,1-0.3
		c4.8-1.6,7.3-6.9,5.7-11.6c-0.4-1.1-1-2.1-1.7-3c1.8-2.4,2.4-5.5,1.4-8.5c-0.7-2.1-2.2-3.8-4-4.9c1.7-2.3,2.3-5.4,1.2-8.3
		c-1-2.9-3.3-4.9-6-5.8c0.2-1.4,0.1-2.9-0.4-4.3c-1.6-4.8-6.9-7.3-11.6-5.7c-0.5,0.2-1,0.4-1.5,0.7c-2.4-2.7-6.2-3.8-9.8-2.6
		c-1.4,0.5-2.6,1.2-3.5,2.2c-2.4-2.8-6.3-4.1-10-2.8c-4.8,1.6-7.3,6.9-5.7,11.6c0.4,1,0.9,2,1.6,2.8c-3.2,2.3-4.7,6.5-3.3,10.4
		c1.1,3.1,3.6,5.2,6.5,5.9c-1.2,2.2-1.6,4.9-0.7,7.5c1.1,3.1,3.7,5.3,6.7,6c-1.6,2.3-2.1,5.3-1.1,8.1c0.8,2.3,2.4,4.1,4.4,5.1
		c-0.6,1.8-0.6,3.8,0.1,5.7c1.6,4.8,6.9,7.3,11.6,5.7C639.7,606.4,641.6,604.5,642.6,602.3z"/>
	<path fill="#A25B1F" d="M634,592.8c-0.1-2.6-1.6-5.4-2.6-7.7c-1.1-2.4-2.6-4.7-3.6-7.1c2.3-1.2,6.7,1.2,8.8,2.4
		c1.6,1,3.9,2.5,5.9,2.9c1.2,0.2,3.6,0.2,3.2-1.7c-0.4-1.8-11.7-8.9-14.8-10.2c1.7-3,6.2-15.5,5.4-17.1c-0.9-1.7-2.7-0.3-3.5,0.7
		c-1.3,1.4-2.2,4.1-2.9,5.9c-0.8,2.2-2.8,6.8-5.4,7.3c-0.8-2.5-1-5.2-1.6-7.8c-0.6-2.5-1.1-5.6-2.7-7.7c-2-2.7-3,2.8-1.8,9.1
		c0.9,4.9,0.6,7.1-0.3,9.3c-1.9,0.7-15.4,5.7-23.4,3.7c0,0-2.6,9.4,5.4,15.7c0,0,10.8-8.4,21.1-10.9l0-0.1c2,1.2,3.6,2.7,5.8,7.1
		C629.9,592.4,634,596.2,634,592.8z"/>
	<g>
		<path fill="#FFF27A" d="M647.2,562.5c-2,0.7-4.1-0.4-4.8-2.3c-0.7-2,0.4-4.1,2.3-4.8c2-0.7,4.1,0.4,4.8,2.3
			C650.2,559.7,649.2,561.8,647.2,562.5z"/>
		<path fill="#FFF27A" d="M638.5,577.7c-2,0.7-4.1-0.4-4.8-2.3c-0.7-2,0.4-4.1,2.3-4.8c2-0.7,4.1,0.4,4.7,2.3
			C641.4,574.9,640.4,577,638.5,577.7z"/>
		<path fill="#FFF27A" d="M651.1,583.9c-2,0.7-4.1-0.4-4.8-2.3c-0.7-2,0.4-4.1,2.3-4.7c2-0.7,4.1,0.4,4.8,2.3
			C654.1,581.1,653.1,583.2,651.1,583.9z"/>
		<path fill="#FFF27A" d="M638.2,594.1c-2,0.7-4.1-0.4-4.8-2.3c-0.7-2,0.4-4.1,2.3-4.8c1.9-0.7,4.1,0.4,4.7,2.3
			C641.2,591.3,640.1,593.4,638.2,594.1z"/>
		<path fill="#FFF27A" d="M626.8,559.1c-2,0.7-4.1-0.4-4.7-2.3c-0.7-2,0.4-4.1,2.3-4.8c2-0.7,4.1,0.4,4.8,2.3
			C629.7,556.3,628.7,558.4,626.8,559.1z"/>
	</g>
</g>
<g>
	<path fill="#A39A94" d="M95.7,562.1l-83.5-46.8c-2.8-1.4-6.2-0.3-7.6,2.4l0,0c-1.4,2.8-0.3,6.2,2.4,7.6l85.6,41.3L95.7,562.1z"/>
	
		<rect x="10.6" y="514.3" transform="matrix(0.5938 -0.8046 0.8046 0.5938 -409.1737 220.7559)" fill="#A39A94" width="6.8" height="2.6"/>
	
		<rect x="17.6" y="518" transform="matrix(0.594 -0.8045 0.8045 0.594 -409.2706 227.7328)" fill="#A39A94" width="6.8" height="2.6"/>
	
		<rect x="10.6" y="529.3" transform="matrix(0.594 -0.8045 0.8045 0.594 -421.147 226.7044)" fill="#A39A94" width="6.8" height="2.6"/>
	
		<rect x="24.3" y="521.7" transform="matrix(0.5938 -0.8046 0.8046 0.5938 -409.5081 234.7295)" fill="#A39A94" width="6.8" height="2.6"/>
	
		<rect x="4.2" y="525.8" transform="matrix(0.5941 -0.8044 0.8044 0.5941 -420.9541 220.0451)" fill="#A39A94" width="6.8" height="2.6"/>
</g>
<path fill="#6C8054" d="M497.5,385.3c3.8-5.4,2.5-12.9-3-16.7c-2-1.4-4.2-2.1-6.4-2.1c-0.6-2.9-2.3-5.5-4.9-7.3
	c-3.7-2.6-8.3-2.8-12.1-0.9c-0.8-2.2-2.3-4.2-4.4-5.7c-5.4-3.8-12.9-2.5-16.7,3c-0.6,0.8-1,1.7-1.4,2.6c-5.1-2.3-11.3-0.7-14.7,4.1
	c-3.8,5.4-2.5,12.9,3,16.7c1.8,1.2,3.7,1.9,5.7,2.1c-0.2,4,1.6,7.9,5.1,10.3c4.3,3,9.9,2.8,13.9-0.1c1.2,0.8,2.5,1.3,3.9,1.6
	c0.5,3.1,2.2,6,5,7.9c5.4,3.8,12.9,2.5,16.7-3c1.6-2.2,2.2-4.8,2.1-7.4C492.5,389.8,495.5,388.1,497.5,385.3z"/>
<path fill="#6C8054" d="M203.4,402.4c-0.9-6.6-7-11.1-13.6-10.2c-2.4,0.3-4.5,1.4-6.1,2.8c-2.4-1.7-5.4-2.5-8.6-2
	c-4.5,0.6-8,3.7-9.5,7.6c-2.1-1.1-4.6-1.5-7.1-1.2c-6.6,0.9-11.1,7-10.2,13.6c0.1,1,0.4,1.9,0.8,2.8c-5.3,1.8-8.8,7.3-7.9,13
	c0.9,6.6,7,11.1,13.6,10.2c2.1-0.3,4-1.1,5.6-2.4c2.6,3,6.6,4.7,10.8,4.1c5.2-0.7,9.1-4.7,10.1-9.6c1.4-0.3,2.7-0.8,3.9-1.5
	c2.5,1.9,5.7,2.9,9,2.4c6.6-0.9,11.1-7,10.2-13.6c-0.4-2.7-1.7-5.1-3.5-6.8C202.9,409.1,203.9,405.9,203.4,402.4z"/>
<g>
	<path fill="#A39A94" d="M462.5,421.2l39.3-87.2c1.2-2.9-0.2-6.2-3.1-7.4l0,0c-2.9-1.2-6.2,0.2-7.4,3.1l-33.6,88.9L462.5,421.2z"/>
	
		<rect x="500.3" y="332.4" transform="matrix(0.5212 -0.8534 0.8534 0.5212 -46.389 588.8151)" fill="#A39A94" width="2.6" height="6.8"/>
	
		<rect x="497.2" y="339.6" transform="matrix(0.5217 -0.8532 0.8532 0.5217 -54.1507 589.3693)" fill="#A39A94" width="2.6" height="6.8"/>
	
		<rect x="485.4" y="333.6" transform="matrix(0.5213 -0.8534 0.8534 0.5213 -54.6361 576.6531)" fill="#A39A94" width="2.6" height="6.8"/>
	
		<rect x="494.2" y="346.6" transform="matrix(0.5214 -0.8533 0.8533 0.5214 -61.548 590.3196)" fill="#A39A94" width="2.6" height="6.8"/>
	
		<rect x="488.3" y="326.9" transform="matrix(0.5213 -0.8534 0.8534 0.5213 -47.5153 575.8782)" fill="#A39A94" width="2.6" height="6.8"/>
</g>
<g>
	<path fill="#A39A94" d="M563.5,526.4l79.4-18.9c2.6-0.7,4.1-3.4,3.4-5.9l0,0c-0.7-2.6-3.4-4.1-6-3.4l-77.5,23.6L563.5,526.4z"/>
	
		<rect x="640.4" y="505.5" transform="matrix(0.994 -0.1091 0.1091 0.994 -51.6356 73.0195)" fill="#A39A94" width="2.2" height="5.8"/>
	
		<rect x="633.9" y="507.2" transform="matrix(0.9943 -0.1067 0.1067 0.9943 -50.8134 70.6882)" fill="#A39A94" width="2.2" height="5.8"/>
	
		<rect x="631.8" y="496.1" transform="matrix(0.9941 -0.1084 0.1084 0.9941 -50.3783 71.5695)" fill="#A39A94" width="2.2" height="5.8"/>
	
		<rect x="627.6" y="508.8" transform="matrix(0.9941 -0.1084 0.1084 0.9941 -51.7633 71.1628)" fill="#A39A94" width="2.2" height="5.8"/>
	
		<rect x="637.8" y="494.5" transform="matrix(0.9941 -0.1081 0.1081 0.9941 -50.0488 72.0151)" fill="#A39A94" width="2.2" height="5.8"/>
</g>
<path fill="#6C8054" d="M532.2,401.3c0.5-1.3,0.8-2.7,0.8-4.2c0-6.6-5.4-12-12-12c-5.2,0-9.7,3.4-11.3,8c-1.9-1.3-4.2-2-6.7-2
	c-6.6,0-12,5.4-12,12c0,6.6,5.4,12,12,12c1,0,2.1-0.1,3-0.4c0.3,6.3,5.5,11.4,12,11.4c2.6,0,4.9-0.8,6.9-2.2
	c0.7,0.1,1.4,0.2,2.1,0.2c6.6,0,12-5.4,12-12C539,407.3,536.3,403.2,532.2,401.3z"/>
<path fill="#6C8054" d="M581.3,448.2c3.8-5.4,2.5-12.9-3-16.7c-2-1.4-4.2-2.1-6.4-2.1c-0.6-2.9-2.3-5.5-4.9-7.3
	c-3.7-2.6-8.3-2.8-12.1-0.9c-0.8-2.2-2.3-4.2-4.4-5.7c-5.4-3.8-12.9-2.5-16.7,3c-0.6,0.8-1,1.7-1.4,2.6c-5.1-2.3-11.3-0.7-14.7,4.1
	c-3.8,5.4-2.5,12.9,3,16.7c1.8,1.2,3.7,1.9,5.7,2.1c-0.2,4,1.6,7.9,5.1,10.3c4.3,3,9.9,2.8,13.9-0.1c1.2,0.8,2.5,1.3,3.9,1.6
	c0.5,3.1,2.2,6,5,7.9c5.4,3.8,12.9,2.5,16.7-3c1.6-2.2,2.2-4.8,2.1-7.4C576.4,452.7,579.4,451,581.3,448.2z"/>
<path fill="#6C8054" d="M120,498.7c-1.2-2.5-3.1-4.3-5.4-5.5c1.1-3,1.1-6.4-0.4-9.5c-2.9-6-10.1-8.4-16-5.6c-2.1,1-3.8,2.6-5,4.6
	c-2.8-0.9-5.9-0.7-8.8,0.7c-4.1,2-6.5,5.9-6.7,10.1c-2.3-0.4-4.8-0.1-7.1,1.1c-6,2.9-8.4,10.1-5.5,16c0.4,0.9,1,1.7,1.6,2.4
	c-4.5,3.4-6.1,9.6-3.6,14.8c2.4,5,7.9,7.5,13.1,6.5c0.2,6.5,5.5,11.7,12,11.7c6.6,0,12-5.4,12-12c0-2.3-0.7-4.4-1.8-6.2
	c2.7-2.6,4-6.3,3.6-10c1.3-0.7,2.4-1.6,3.3-2.6c2.9,1.1,6.3,1,9.3-0.5C120.4,511.8,122.9,504.7,120,498.7z"/>
<path fill="#6C8054" d="M85.5,564.4c1.6-2,2.5-4.6,2.5-7.3c0-6.6-5.4-12-12-12c-6.3,0-11.5,4.9-12,11.1c-2.2-2.5-5.4-4.1-9-4.1
	c-6.6,0-12,5.4-12,12c0,1.8,0.4,3.5,1.1,5c-6.2,0.5-11.1,5.6-11.1,12c0,4.8,2.8,8.8,6.8,10.8c-0.5,1.3-0.8,2.7-0.8,4.2
	c0,6.6,5.4,12,12,12c1.1,0,2.1-0.2,3.1-0.4c-0.1,0.5-0.1,0.9-0.1,1.4c0,6.6,5.4,12,12,12c6.6,0,12-5.4,12-12c0-5-3-9.2-7.3-11
	c3.2-2.2,5.3-5.8,5.3-10c0-0.6-0.1-1.2-0.1-1.8c1.3,0.5,2.7,0.8,4.1,0.8c6.6,0,12-5.4,12-12C92,570.4,89.4,566.4,85.5,564.4z"/>
<path fill="#F8ECA6" d="M69.4,623.8c0-149.5,121.2-270.7,270.7-270.7s270.7,121.2,270.7,270.7H69.4z"/>
<g>
	<path fill="#FED65E" d="M458,380.1c-35.7-17.3-75.7-27.1-118-27.1c-58.4,0-112.5,18.5-156.7,50C243.7,412.9,341.5,417.3,458,380.1z
		"/>
	<path fill="#FFF295" d="M458,380.1c-116.5,37.2-214.3,32.7-274.7,22.9c-39.3,28-70.9,66.2-90.7,110.9
		c187.9-7.8,313.5-72.8,384-123.9C470.6,386.5,464.3,383.2,458,380.1z"/>
	<path fill="#FED65E" d="M512.1,414.8c-11.1-9.2-23-17.5-35.5-24.8c-70.6,51-196.1,116-384,123.9c-8.4,18.8-14.6,38.8-18.6,59.5
		C352.6,554.5,468.3,465.3,512.1,414.8z"/>
	<path fill="#FED65E" d="M590.1,520.1c-179.8,74.9-428.7,94.6-520.7,99.5c0,1.4-0.1,2.8-0.1,4.2h541.3
		C610.7,587,603.4,552.1,590.1,520.1z"/>
	<path fill="#FFF295" d="M512.1,414.8C468.3,465.3,352.6,554.5,74,573.5c-2.8,15-4.4,30.4-4.6,46.1c92-4.9,340.9-24.5,520.7-99.5
		C573,478.9,546,442.8,512.1,414.8z"/>
</g>
<g>
	
		<rect x="264.4" y="577.8" transform="matrix(0.9433 -0.3319 0.3319 0.9433 -179.9977 127.0365)" fill="#529049" width="35" height="25.4"/>
	<path fill="#8D8480" d="M268.6,607.8c0.4,1.1,1.7,1.7,3,1.3l6.2-2.2c1.2-0.4,1.9-1.7,1.5-2.9l-1.3-3.7c-0.4-1.1-1.7-1.7-3-1.3
		l-6.2,2.2c-1.2,0.4-1.9,1.7-1.5,2.9L268.6,607.8z"/>
	<path fill="#13140D" d="M274.8,602.9c1.8,5.1,7.4,7.8,12.4,6c5.1-1.8,7.8-7.4,6-12.4c-1.8-5.1-7.4-7.8-12.4-6
		C275.7,592.2,273,597.8,274.8,602.9z"/>
	<path fill="#FFFFFF" d="M280.4,600.9c0.7,2,2.9,3.1,4.9,2.3c2-0.7,3.1-2.9,2.3-4.9c-0.7-2-2.9-3-4.9-2.3
		C280.8,596.7,279.7,598.9,280.4,600.9z"/>
	<path fill="#8D8480" d="M258.3,585.7c0.7,2,2.9,3.1,4.9,2.3l28.4-10c2-0.7,3.1-2.9,2.3-4.9l0,0c-0.7-2-2.9-3.1-4.9-2.3l-28.4,10
		C258.6,581.5,257.6,583.7,258.3,585.7L258.3,585.7z"/>
	<path fill="#85B552" d="M299.5,597.8l-11.9-33.9c0,0-4.8-8.8,8.9-13.7c13.7-4.8,17.8,4.4,21.1,13.8c0,0,13.1-7.7,17.9,5.9l4.8,13.6
		L299.5,597.8z"/>
	<path fill="#8D8480" d="M330.7,585.7c0.4,1.2,1.8,1.9,3,1.4l6.2-2.2c1.2-0.4,1.9-1.8,1.5-3l-1.4-4c-0.4-1.2-1.8-1.9-3-1.4l-6.2,2.2
		c-1.2,0.4-1.9,1.8-1.4,3L330.7,585.7z"/>
	<path fill="#FFF9BC" d="M315,571l-14.3,5l-5.2-14.8c0,0-1.8-3.8,4.5-6c6.3-2.2,10.5,2.8,12,7C313.4,566.4,315,571,315,571z"/>
	<path fill="#FFBD00" d="M337,574.3l-1.5-4.4c-0.8-2.2-1.8-3.8-2.9-5c0,0-4.9,1.8-1.7,7.3C334,577.7,337,574.3,337,574.3z"/>
	<path fill="#13140D" d="M307.9,591.3c1.8,5.1,7.4,7.8,12.4,6c5.1-1.8,7.8-7.4,6-12.4c-1.8-5.1-7.4-7.8-12.4-6
		C308.8,580.6,306.1,586.2,307.9,591.3z"/>
	<path fill="#FFFFFF" d="M313.5,589.3c0.7,2,2.9,3.1,4.9,2.3c2-0.7,3-2.9,2.3-4.9c-0.7-2-2.9-3.1-4.9-2.3
		C313.8,585.1,312.8,587.3,313.5,589.3z"/>
</g>
<g>
	<path fill="#5FBC7F" d="M181.3,485.2c0.1-0.5,0.1-0.9,0.1-1.4c0-6.6-5.4-12-12-12c-5.9,0-10.8,4.3-11.8,9.9c-2.1-2-5-3.2-8.2-3.2
		c-6.6,0-12,5.4-12,12c0,0.7,0.1,1.3,0.2,1.9c-3.3,2.1-5.5,5.8-5.5,10.1c0,6.6,5.4,12,12,12c4.8,0,8.9-2.8,10.9-6.9
		c2.2,2.6,5.5,4.2,9.1,4.2c3.8,0,7.3-1.8,9.4-4.6c1.9,1.2,4.1,2,6.6,2c6.6,0,12-5.4,12-12C192,490.9,187.3,485.8,181.3,485.2z"/>
	<g>
		<rect x="160.1" y="489.6" fill="#FFFFFF" width="2.1" height="5.6"/>
		
			<rect x="175.4" y="486" transform="matrix(0.3132 -0.9497 0.9497 0.3132 -343.0956 503.3066)" fill="#FFFFFF" width="2.1" height="5.6"/>
		
			<rect x="179.7" y="496.7" transform="matrix(0.8941 -0.4478 0.4478 0.8941 -204.146 133.5676)" fill="#FFFFFF" width="1.4" height="3.6"/>
		
			<rect x="167.4" y="498.5" transform="matrix(0.9254 -0.3789 0.3789 0.9254 -176.6022 101.7418)" fill="#FFFFFF" width="5.6" height="2.1"/>
		
			<rect x="152.6" y="501.6" transform="matrix(0.4846 -0.8747 0.8747 0.4846 -361.6441 393.9014)" fill="#FFFFFF" width="1.7" height="4.5"/>
		<polygon fill="#FFFFFF" points="152.5,493.9 151.7,495.4 147.8,493.2 148.6,491.7 		"/>
		<rect x="141.3" y="493.8" fill="#FFFFFF" width="2.1" height="5.6"/>
		
			<rect x="165.1" y="480.6" transform="matrix(0.4802 -0.8771 0.8771 0.4802 -337.2706 396.4846)" fill="#FFFFFF" width="1.7" height="4.5"/>
	</g>
</g>
<g>
	<path fill="#5FBC7F" d="M438.1,544.1c0.1-0.5,0.1-0.9,0.1-1.4c0-6.6-5.4-12-12-12c-5.9,0-10.8,4.3-11.8,9.9c-2.1-2-5-3.2-8.2-3.2
		c-6.6,0-12,5.4-12,12c0,0.7,0.1,1.3,0.2,1.9c-3.3,2.1-5.5,5.8-5.5,10.1c0,6.6,5.4,12,12,12c4.8,0,8.9-2.8,10.9-6.9
		c2.2,2.6,5.5,4.2,9.1,4.2c3.8,0,7.3-1.8,9.4-4.6c1.9,1.2,4.1,2,6.6,2c6.6,0,12-5.4,12-12C448.8,549.8,444.1,544.7,438.1,544.1z"/>
	<g>
		<rect x="416.9" y="548.6" fill="#FFFFFF" width="2.1" height="5.6"/>
		
			<rect x="432.1" y="545" transform="matrix(0.3132 -0.9497 0.9497 0.3132 -222.6917 787.6375)" fill="#FFFFFF" width="2.1" height="5.6"/>
		
			<rect x="436.5" y="555.7" transform="matrix(0.8941 -0.4478 0.4478 0.8941 -203.3463 254.7903)" fill="#FFFFFF" width="1.4" height="3.6"/>
		
			<rect x="424.2" y="557.4" transform="matrix(0.9254 -0.3789 0.3789 0.9254 -179.7803 203.4321)" fill="#FFFFFF" width="5.6" height="2.1"/>
		
			<rect x="409.4" y="560.5" transform="matrix(0.4846 -0.8747 0.8747 0.4846 -280.8451 648.8792)" fill="#FFFFFF" width="1.7" height="4.5"/>
		<polygon fill="#FFFFFF" points="409.3,552.8 408.5,554.3 404.5,552.1 405.4,550.6 		"/>
		<rect x="398.1" y="552.7" fill="#FFFFFF" width="2.1" height="5.6"/>
		
			<rect x="421.8" y="539.5" transform="matrix(0.4802 -0.8771 0.8771 0.4802 -255.4876 652.3398)" fill="#FFFFFF" width="1.7" height="4.5"/>
	</g>
</g>
<g>
	<path fill="#5FBC7F" d="M145.5,440.1c-2.9-4.8-9.2-6.3-14.1-3.4c-1.7,1.1-3,2.6-3.8,4.3c-2.4-0.5-5.1-0.1-7.4,1.3
		c-3.3,2-5,5.6-4.9,9.1c-2-0.1-4.1,0.4-5.9,1.5c-4.8,3-6.3,9.2-3.4,14.1c0.4,0.7,1,1.4,1.6,1.9c-3.5,3.2-4.4,8.6-1.8,12.9
		c2.9,4.8,9.2,6.3,14,3.4c1.6-0.9,2.8-2.3,3.6-3.7c3,1.5,6.7,1.4,9.8-0.5c3.8-2.3,5.5-6.7,4.6-10.9c1-0.7,1.9-1.5,2.5-2.5
		c2.6,0.7,5.4,0.3,7.9-1.2c4.8-2.9,6.3-9.2,3.4-14c-1.2-2-3-3.4-5-4.2C147.4,445.5,147.1,442.6,145.5,440.1z"/>
	<g>
		<polygon fill="#FFFFFF" points="130.4,461 128.9,462.3 125.5,458.2 127,456.9 		"/>
		
			<rect x="134.3" y="446.6" transform="matrix(0.9309 -0.3653 0.3653 0.9309 -154.0647 80.9585)" fill="#FFFFFF" width="5.4" height="2"/>
		
			<rect x="145.1" y="450.6" transform="matrix(0.403 -0.9152 0.9152 0.403 -326.963 403.4314)" fill="#FFFFFF" width="1.3" height="3.4"/>
		
			<rect x="136.2" y="458.3" transform="matrix(0.4686 -0.8834 0.8834 0.4686 -331.9342 366.7806)" fill="#FFFFFF" width="5.4" height="2"/>
		
			<rect x="127.1" y="471.8" transform="matrix(0.9826 -0.1859 0.1859 0.9826 -85.6161 32.2719)" fill="#FFFFFF" width="4.3" height="1.6"/>
		
			<rect x="118.4" y="466.3" transform="matrix(0.9823 -0.1875 0.1875 0.9823 -85.4302 30.8856)" fill="#FFFFFF" width="4.3" height="1.6"/>
		
			<rect x="115.7" y="471.4" transform="matrix(0.7697 -0.6384 0.6384 0.7697 -275.746 183.702)" fill="#FFFFFF" width="2" height="5.4"/>
		<polygon fill="#FFFFFF" points="127.5,448.4 127.8,450 123.6,450.9 123.3,449.3 		"/>
	</g>
</g>
<g>
	<path fill="#5FBC7F" d="M458.2,392.2c0-4.9-4-8.9-8.9-8.9c-2.4,0-4.5,0.9-6.1,2.4c-0.7-4.2-4.4-7.4-8.8-7.4c-4.9,0-8.9,4-8.9,8.9
		c0,3.1,1.6,5.8,4,7.4c0,0.2,0,0.3,0,0.5c0,0,0,0,0,0.1c-4.5,0.5-7.9,4.3-7.9,8.9c0,4.9,4,8.9,8.9,8.9c3.6,0,6.6-2.1,8.1-5.1
		c1.6,1.9,4.1,3.2,6.8,3.2c4.9,0,8.9-4,8.9-8.9c0-0.8-0.1-1.6-0.3-2.3C456.5,398.2,458.2,395.4,458.2,392.2z"/>
	<g>
		<rect x="432" y="393" fill="#FFFFFF" width="2" height="5.4"/>
		
			<rect x="446.5" y="389.6" transform="matrix(0.3134 -0.9496 0.9496 0.3134 -65.217 694.3768)" fill="#FFFFFF" width="2" height="5.4"/>
		
			<rect x="450.7" y="399.8" transform="matrix(0.8944 -0.4472 0.4472 0.8944 -131.9061 244.2564)" fill="#FFFFFF" width="1.3" height="3.4"/>
		
			<rect x="439" y="401.4" transform="matrix(0.9253 -0.3793 0.3793 0.9253 -119.6519 197.5827)" fill="#FFFFFF" width="5.4" height="2"/>
		
			<rect x="424.9" y="404.4" transform="matrix(0.4846 -0.8747 0.8747 0.4846 -136.2072 581.8887)" fill="#FFFFFF" width="1.6" height="4.3"/>
		
			<rect x="436.8" y="384.4" transform="matrix(0.4809 -0.8768 0.8768 0.4809 -111.7847 584.2828)" fill="#FFFFFF" width="1.6" height="4.3"/>
	</g>
</g>
<g>
	<path fill="#85C83B" d="M208.3,597.7c1.8-4.6-0.5-9.8-5.1-11.5c-2.2-0.9-4.5-0.8-6.5,0c0.8-4.2-1.4-8.5-5.5-10
		c-4.6-1.8-9.8,0.5-11.5,5.1c-1.1,2.9-0.6,6,1,8.4c-0.1,0.2-0.1,0.3-0.2,0.5c0,0,0,0,0,0.1c-4.3-1.2-8.9,1.1-10.6,5.4
		c-1.8,4.6,0.5,9.8,5.1,11.5c3.3,1.3,7,0.4,9.4-1.9c0.8,2.4,2.6,4.4,5.2,5.4c4.6,1.8,9.8-0.5,11.5-5.1c0.3-0.7,0.5-1.5,0.5-2.3
		C204.5,602.7,207.1,600.7,208.3,597.7z"/>
	<g>
		
			<rect x="180.9" y="590.9" transform="matrix(0.3631 -0.9318 0.9318 0.3631 -434.5745 548.0093)" fill="#FFFFFF" width="5.4" height="2"/>
		
			<rect x="197.3" y="591.3" transform="matrix(0.6363 -0.7714 0.7714 0.6363 -386.0606 369.0126)" fill="#FFFFFF" width="2" height="5.4"/>
		
			<rect x="197.9" y="602.2" transform="matrix(0.9957 -9.311443e-02 9.311443e-02 0.9957 -55.3693 21.1095)" fill="#FFFFFF" width="1.3" height="3.4"/>
		
			<rect x="186.4" y="600.3" transform="matrix(0.9998 -1.917254e-02 1.917254e-02 0.9998 -11.4935 3.7365)" fill="#FFFFFF" width="5.4" height="2"/>
		
			<rect x="172" y="597.2" transform="matrix(0.7688 -0.6395 0.6395 0.7688 -343.2988 249.0719)" fill="#FFFFFF" width="1.6" height="4.3"/>
		
			<rect x="190.3" y="582.8" transform="matrix(0.7657 -0.6432 0.6432 0.7657 -331.4915 259.9901)" fill="#FFFFFF" width="1.6" height="4.3"/>
	</g>
</g>
<g>
	<path fill="#85C83B" d="M554.1,447.7c1.8-4.6-0.5-9.8-5.1-11.5c-2.2-0.9-4.5-0.8-6.5,0c0.8-4.2-1.4-8.5-5.5-10
		c-4.6-1.8-9.8,0.5-11.5,5.1c-1.1,2.9-0.6,6,1,8.4c-0.1,0.2-0.1,0.3-0.2,0.5c0,0,0,0,0,0.1c-4.3-1.2-8.9,1.1-10.6,5.4
		c-1.8,4.6,0.5,9.8,5.1,11.5c3.3,1.3,7,0.4,9.4-1.9c0.8,2.4,2.6,4.4,5.2,5.4c4.6,1.8,9.8-0.5,11.5-5.1c0.3-0.7,0.5-1.5,0.5-2.3
		C550.3,452.7,552.9,450.7,554.1,447.7z"/>
	<g>
		
			<rect x="526.6" y="440.9" transform="matrix(0.3631 -0.9317 0.9317 0.3631 -74.6532 774.6262)" fill="#FFFFFF" width="5.4" height="2"/>
		
			<rect x="543.1" y="441.3" transform="matrix(0.6363 -0.7714 0.7714 0.6363 -144.6396 581.1982)" fill="#FFFFFF" width="2" height="5.4"/>
		
			<rect x="543.6" y="452.2" transform="matrix(0.9957 -9.311443e-02 9.311443e-02 0.9957 -39.9045 52.652)" fill="#FFFFFF" width="1.3" height="3.4"/>
		
			<rect x="532.2" y="450.3" transform="matrix(0.9998 -1.917160e-02 1.917160e-02 0.9998 -8.5546 10.3372)" fill="#FFFFFF" width="5.4" height="2"/>
		
			<rect x="517.7" y="447.2" transform="matrix(0.7688 -0.6395 0.6395 0.7688 -167.4688 435.4995)" fill="#FFFFFF" width="1.6" height="4.3"/>
		
			<rect x="536" y="432.9" transform="matrix(0.7657 -0.6433 0.6433 0.7657 -154.0248 447.2769)" fill="#FFFFFF" width="1.6" height="4.3"/>
	</g>
</g>
<g>
	<path fill="#5FBC7F" d="M338.6,442.2c-0.8-5.5-5.8-9.3-11.3-8.5c-2,0.3-3.7,1.1-5.1,2.3c-2-1.4-4.5-2.1-7.1-1.7
		c-3.7,0.5-6.7,3-7.9,6.3c-1.8-0.9-3.8-1.3-5.9-1c-5.5,0.8-9.3,5.8-8.5,11.3c0.1,0.8,0.3,1.6,0.6,2.3c-4.4,1.5-7.3,6-6.6,10.8
		c0.8,5.5,5.8,9.3,11.3,8.5c1.8-0.2,3.4-0.9,4.7-2c2.1,2.5,5.5,3.9,9,3.4c4.3-0.6,7.6-3.9,8.4-7.9c1.2-0.2,2.3-0.7,3.3-1.3
		c2.1,1.6,4.7,2.4,7.5,2c5.5-0.8,9.3-5.8,8.5-11.3c-0.3-2.2-1.4-4.2-2.9-5.7C338.2,447.8,339,445,338.6,442.2z"/>
	<g>
		<rect x="312.5" y="449.8" fill="#FFFFFF" width="2" height="5.4"/>
		
			<rect x="327" y="446.4" transform="matrix(0.3134 -0.9496 0.9496 0.3134 -201.231 619.8578)" fill="#FFFFFF" width="2" height="5.4"/>
		
			<rect x="331.2" y="456.6" transform="matrix(0.8944 -0.4472 0.4472 0.8944 -169.9115 196.7585)" fill="#FFFFFF" width="1.3" height="3.4"/>
		
			<rect x="319.4" y="458.2" transform="matrix(0.9253 -0.3793 0.3793 0.9253 -150.1219 156.4819)" fill="#FFFFFF" width="5.4" height="2"/>
		
			<rect x="305.4" y="461.2" transform="matrix(0.4846 -0.8747 0.8747 0.4846 -247.4895 506.6023)" fill="#FFFFFF" width="1.6" height="4.3"/>
		
			<rect x="302.2" y="451.4" transform="matrix(0.4841 -0.875 0.875 0.4841 -240.5192 499.1507)" fill="#FFFFFF" width="1.6" height="4.3"/>
		<rect x="294.6" y="453.8" fill="#FFFFFF" width="2" height="5.4"/>
		
			<rect x="317.2" y="441.2" transform="matrix(0.4809 -0.8768 0.8768 0.4809 -223.6275 508.9626)" fill="#FFFFFF" width="1.6" height="4.3"/>
	</g>
</g>
<g>
	<path fill="#5FBC7F" d="M494.4,457c3.6,4.2,9.9,4.7,14.1,1.2c1.5-1.3,2.5-2.9,3.1-4.7c2.4,0.1,4.9-0.6,6.9-2.3
		c2.9-2.4,4-6.1,3.3-9.5c2-0.2,3.9-0.9,5.5-2.3c4.2-3.6,4.7-9.9,1.2-14.1c-0.5-0.6-1.1-1.2-1.8-1.6c2.9-3.7,3-9-0.2-12.7
		c-3.6-4.2-9.9-4.7-14.1-1.2c-1.4,1.2-2.3,2.6-2.9,4.2c-3.1-1-6.7-0.4-9.4,1.9c-3.3,2.8-4.3,7.3-2.8,11.2c-0.9,0.8-1.6,1.8-2.1,2.8
		c-2.6-0.2-5.3,0.5-7.4,2.3c-4.2,3.6-4.7,9.9-1.1,14.1c1.5,1.7,3.4,2.8,5.5,3.3C491.8,452.1,492.6,454.8,494.4,457z"/>
	<g>
		
			<rect x="509.1" y="432.2" transform="matrix(0.8438 -0.5366 0.5366 0.8438 -153.6848 341.6768)" fill="#FFFFFF" width="2" height="5.4"/>
		
			<rect x="497" y="444.5" transform="matrix(0.9694 -0.2455 0.2455 0.9694 -94.0765 136.2939)" fill="#FFFFFF" width="5.4" height="2"/>
		
			<rect x="490.9" y="438.1" transform="matrix(0.5171 -0.8559 0.8559 0.5171 -139.0542 633.1051)" fill="#FFFFFF" width="1.3" height="3.4"/>
		
			<rect x="496.6" y="432.7" transform="matrix(0.5788 -0.8155 0.8155 0.5788 -143.4269 589.8558)" fill="#FFFFFF" width="5.4" height="2"/>
		
			<rect x="508.4" y="421" transform="matrix(0.9983 -5.879044e-02 5.879044e-02 0.9983 -23.915 30.7436)" fill="#FFFFFF" width="4.3" height="1.6"/>
		<polygon fill="#FFFFFF" points="516.4,429.3 516.3,427.7 520.5,427.5 520.6,429.1 		"/>
		
			<rect x="522.1" y="419.3" transform="matrix(0.8457 -0.5337 0.5337 0.8457 -144.4648 344.3187)" fill="#FFFFFF" width="2" height="5.4"/>
		
			<rect x="509.1" y="444.2" transform="matrix(0.998 -6.341194e-02 6.341194e-02 0.998 -27.1915 33.3131)" fill="#FFFFFF" width="4.3" height="1.6"/>
	</g>
</g>
<g>
	<path fill="#8D0162" d="M399.3,415.6l-0.4,0.2c-0.1-0.2-0.2-0.4-0.3-0.6l-9.3-15c-1.1-1.7-3.4-1.2-5.8,0L359,412
		c-2.4,1.2-4.9,2.8-4.9,5l-0.2,20.1c0,0.2,0,0.3,0,0.5l-6.9,3.4c-2.4,1.2-3.6,3.7-2.6,5.7l5.2,10.7c1,2,3.3,1.9,5.7,0.7l52.1-25.6
		c2.4-1.2,4.1-2.7,3.1-4.7l-5.2-10.7C404.4,415.1,401.7,414.4,399.3,415.6z"/>
	<path fill="#8462AC" d="M354.1,420.1l0-3.1c0-2.1,2.5-3.8,4.9-5l24.5-11.9c2.4-1.2,4.7-1.7,5.8,0l1.4,2.3L354.1,420.1z"/>
	<path fill="#A6DDE0" d="M353.9,435.9l0.1-13.3l5.2-2.5c0,0,3.7-2.3,5.6,1.8c2,4,2.3,4.9,2.3,4.9s1,2.7-2.7,4.5
		C360.7,433.1,353.9,435.9,353.9,435.9z"/>
	<path fill="#A6DDE0" d="M389.4,417.4c0.4,0.8-0.1,1.8-1.2,2.3l-11.4,5.5c-1,0.5-2.2,0.3-2.6-0.5l-3.5-7.3c-0.4-0.8,0.1-1.8,1.2-2.3
		l11.4-5.5c1-0.5,2.2-0.3,2.6,0.5L389.4,417.4z"/>
	<path fill="#FFBD00" d="M344.9,447.5l3.4,7l4.2-2C352.4,452.4,351.5,444.7,344.9,447.5z"/>
	<path fill="#8462AC" d="M365.2,451.5c0.9,1.9,0,4.2-2.1,5.2l-9,4.4c-2.1,1-4.5,0.3-5.4-1.6l0,0c-0.9-1.9,0-4.2,2.1-5.2l9-4.4
		C361.8,448.9,364.3,449.6,365.2,451.5L365.2,451.5z"/>
	<path fill="#8462AC" d="M412.6,428.8c0.6,1.3,0.6,2.7-1,3.5l-5.3,2.5c-1.6,0.8-3.5,0.3-4.1-1l0,0c-0.6-1.3,0.1-3.1,1.8-3.9l5.3-2.5
		C410.8,426.7,412,427.5,412.6,428.8L412.6,428.8z"/>
	<path fill="#13140D" d="M372.7,446.3c2.2,4.4,0.3,9.8-4.2,12c-4.4,2.2-9.8,0.3-12-4.2c-2.2-4.4-0.3-9.8,4.2-12
		C365.2,440,370.6,441.9,372.7,446.3z"/>
	<path fill="#FFFFFF" d="M368.5,448.4c1,2.1,0.1,4.7-2,5.7c-2.1,1-4.7,0.1-5.7-2c-1-2.1-0.1-4.7,2-5.7
		C364.9,445.4,367.5,446.2,368.5,448.4z"/>
	<path fill="#13140D" d="M404,431.2c2.2,4.4,0.3,9.8-4.2,11.9c-4.4,2.2-9.8,0.3-12-4.2c-2.2-4.4-0.3-9.8,4.2-12
		C396.4,424.9,401.8,426.7,404,431.2z"/>
	<path fill="#FFFFFF" d="M399.7,433.2c1,2.1,0.1,4.7-2,5.7c-2.1,1-4.7,0.1-5.7-2c-1-2.1-0.1-4.7,2-5.7
		C396.2,430.2,398.7,431.1,399.7,433.2z"/>
</g>
<g>
	<polygon fill="#9BC5A8" points="480.9,568.2 467.2,568.2 467.2,547.3 481.9,542.7 	"/>
	<path fill="#9BC5A8" d="M485.2,528c0,0,0.5-10.9,9.4-10.9c8.9,0,12.5,0,12.5,0v10.7L485.2,528z"/>
	<rect x="503.8" y="517" fill="#271887" width="76.5" height="9.9"/>
	<polygon fill="#4F73B2" points="580.3,572.2 478.1,572.2 478.1,543.7 485.5,526.7 580.3,526.7 	"/>
	<rect x="465.9" y="565.4" fill="#658FBE" width="15.5" height="6.9"/>
	<polygon fill="#A6DDE0" points="478.1,543.7 484.1,529.9 496.2,529.9 496.2,544 	"/>
	<rect x="502" y="531" fill="#9BC5A8" width="13" height="32.3"/>
	<g>
		<rect x="520" y="531" fill="#9BC5A8" width="11.4" height="11.6"/>
		<rect x="534.7" y="531" fill="#9BC5A8" width="11.4" height="11.6"/>
		<rect x="549.4" y="531" fill="#9BC5A8" width="11.4" height="11.6"/>
		<rect x="564.1" y="531" fill="#9BC5A8" width="11.4" height="11.6"/>
	</g>
	<g>
		<path fill="#13140D" d="M502.9,569.8c0,5.9-4.8,10.7-10.7,10.7c-5.9,0-10.7-4.8-10.7-10.7c0-5.9,4.8-10.7,10.7-10.7
			C498.1,559,502.9,563.8,502.9,569.8z"/>
		<path fill="#FFFFFF" d="M495.8,569.8c0,2-1.6,3.7-3.7,3.7c-2,0-3.7-1.6-3.7-3.7c0-2,1.6-3.7,3.7-3.7
			C494.2,566.1,495.8,567.7,495.8,569.8z"/>
	</g>
	<g>
		<path fill="#13140D" d="M572.7,569.8c0,5.9-4.8,10.7-10.7,10.7c-5.9,0-10.7-4.8-10.7-10.7c0-5.9,4.8-10.7,10.7-10.7
			C567.9,559,572.7,563.8,572.7,569.8z"/>
		<path fill="#FFFFFF" d="M565.7,569.8c0,2-1.6,3.7-3.7,3.7c-2,0-3.7-1.6-3.7-3.7c0-2,1.6-3.7,3.7-3.7
			C564,566.1,565.7,567.7,565.7,569.8z"/>
	</g>
	<path fill="#658FBE" d="M580.9,571.4c-0.1,0.5-0.6,0.9-1.1,0.9H573c-0.5,0-0.9-0.4-0.9-0.9V564c0-0.5,0.4-0.9,0.9-0.9h7.1
		c0.5,0,0.8,0.4,0.7,0.9L580.9,571.4z"/>
	<path fill="#FFFF00" d="M474.8,557.7c0,2-1.6,3.5-3.5,3.5c-2,0-3.5-1.6-3.5-3.5c0-1.9,1.6-3.5,3.5-3.5
		C473.2,554.2,474.8,555.7,474.8,557.7z"/>
</g>
<g>
	<polygon fill="#8D8480" points="450.5,563.8 450.5,488.2 445.6,488.2 445.6,563.8 436.5,563.8 436.5,568.7 445.6,568.7 
		450.5,568.7 459.6,568.7 459.6,563.8 	"/>
	<rect x="438.6" y="512" fill="#3F63A9" width="18.9" height="30.1"/>
	<g>
		<path fill="#3F63A9" d="M448,510.1c5.9,0,10.9-3.6,13-8.8h-25.9C437.1,506.5,442.2,510.1,448,510.1z"/>
		<path fill="#3F63A9" d="M448,482.1c-5.9,0-10.9,3.6-13,8.8H461C458.9,485.7,453.9,482.1,448,482.1z"/>
		<path fill="#CBC4BD" d="M461,490.9h-25.9c-0.7,1.6-1,3.4-1,5.2c0,1.9,0.4,3.6,1,5.2H461c0.7-1.6,1-3.4,1-5.2
			C462,494.3,461.7,492.5,461,490.9z"/>
	</g>
</g>
<g>
	<path fill="#5FBC7F" d="M176.2,589.7c-0.2-5.6-5-10-10.6-9.8c-2,0.1-3.9,0.8-5.4,1.8c-1.9-1.6-4.4-2.6-7.1-2.5
		c-3.8,0.1-7.1,2.4-8.7,5.6c-1.7-1.1-3.7-1.7-5.9-1.6c-5.6,0.2-10,5-9.8,10.6c0,0.8,0.2,1.7,0.4,2.4c-4.7,1.1-8.1,5.4-7.9,10.3
		c0.2,5.6,5,10,10.6,9.8c1.8-0.1,3.5-0.6,5-1.5c1.9,2.8,5.2,4.5,8.8,4.4c4.5-0.2,8.1-3.2,9.4-7.2c1.2-0.1,2.4-0.4,3.4-0.9
		c1.9,1.8,4.6,2.9,7.4,2.8c5.6-0.2,10-5,9.8-10.6c-0.1-2.3-1-4.4-2.3-6.1C175.2,595.4,176.3,592.7,176.2,589.7z"/>
	<g>
		<rect x="149.2" y="594.1" fill="#FFFFFF" width="2" height="5.4"/>
		
			<rect x="163.7" y="590.7" transform="matrix(0.3133 -0.9496 0.9496 0.3133 -450.4165 563.8816)" fill="#FFFFFF" width="2" height="5.4"/>
		
			<rect x="167.8" y="600.9" transform="matrix(0.8944 -0.4472 0.4472 0.8944 -251.6852 138.9577)" fill="#FFFFFF" width="1.3" height="3.4"/>
		
			<rect x="156.1" y="602.6" transform="matrix(0.9253 -0.3793 0.3793 0.9253 -217.0573 105.3192)" fill="#FFFFFF" width="5.4" height="2"/>
		
			<rect x="142.1" y="605.5" transform="matrix(0.4846 -0.8747 0.8747 0.4846 -457.8972 438.1483)" fill="#FFFFFF" width="1.6" height="4.3"/>
		
			<rect x="138.9" y="595.7" transform="matrix(0.4841 -0.875 0.875 0.4841 -451.056 430.6939)" fill="#FFFFFF" width="1.6" height="4.3"/>
		<rect x="131.3" y="598.1" fill="#FFFFFF" width="2" height="5.4"/>
		
			<rect x="153.9" y="585.5" transform="matrix(0.4809 -0.8768 0.8768 0.4809 -434.9287 440.6782)" fill="#FFFFFF" width="1.6" height="4.3"/>
	</g>
</g>
<g>
	<path fill="#D7AF68" d="M86.3,543.7c-0.2,0-0.3,0-0.3,0l0-4c0,0,1.4,0,4,0l0.1,4C88.1,543.7,86.8,543.7,86.3,543.7z"/>
	<path fill="#D7AF68" d="M98.2,543.5l-0.1-4c2.4-0.1,5.1-0.2,8.1-0.3l0.2,4C103.3,543.3,100.6,543.4,98.2,543.5z M114.5,542.7
		l-0.2-4c2.5-0.2,5.3-0.3,8.1-0.5l0.3,4C119.8,542.4,117.1,542.6,114.5,542.7z M130.8,541.6l-0.3-4c2.6-0.2,5.3-0.4,8.1-0.7l0.4,4
		C136.1,541.2,133.4,541.4,130.8,541.6z M147,540.1l-0.4-4c2.6-0.3,5.3-0.5,8.1-0.8l0.4,4C152.4,539.6,149.7,539.9,147,540.1z
		 M163.2,538.4l-0.5-4c2.6-0.3,5.3-0.6,8-1l0.5,4C168.6,537.7,165.9,538.1,163.2,538.4z M179.4,536.3l-0.5-4c2.6-0.4,5.3-0.7,8-1.1
		l0.6,4C184.7,535.5,182,535.9,179.4,536.3z M195.5,533.9l-0.6-4c2.6-0.4,5.3-0.8,8-1.3l0.7,3.9
		C200.8,533.1,198.2,533.5,195.5,533.9z M211.6,531.2l-0.7-3.9c2.6-0.5,5.3-0.9,8-1.5l0.7,3.9C216.9,530.3,214.2,530.8,211.6,531.2z
		 M227.6,528.2l-0.8-3.9c2.6-0.5,5.3-1.1,7.9-1.6l0.8,3.9C232.9,527.2,230.2,527.7,227.6,528.2z M243.5,524.9l-0.8-3.9
		c2.6-0.6,5.3-1.2,7.9-1.8l0.9,3.9C248.8,523.8,246.2,524.4,243.5,524.9z M259.4,521.3l-0.9-3.9c2.6-0.6,5.2-1.3,7.9-1.9l1,3.9
		C264.7,520,262,520.7,259.4,521.3z M275.2,517.3l-1-3.9c2.6-0.7,5.2-1.4,7.8-2.1l1.1,3.9C280.5,516,277.8,516.7,275.2,517.3z
		 M290.9,513.1l-1.1-3.8c2.6-0.7,5.2-1.5,7.8-2.3l1.1,3.8C296.1,511.6,293.5,512.3,290.9,513.1z M306.6,508.4l-1.2-3.8
		c2.6-0.8,5.1-1.6,7.7-2.4l1.2,3.8C311.7,506.8,309.1,507.6,306.6,508.4z M322.1,503.4l-1.3-3.8c2.6-0.9,5.1-1.7,7.7-2.6l1.3,3.8
		C327.2,501.7,324.6,502.5,322.1,503.4z M337.4,498l-1.4-3.8c2.5-0.9,5.1-1.9,7.6-2.8l1.4,3.7C342.5,496.1,340,497.1,337.4,498z
		 M352.7,492.2l-1.5-3.7c2.5-1,5-2,7.5-3l1.5,3.7C357.7,490.2,355.2,491.3,352.7,492.2z M367.8,486.1l-1.6-3.7
		c2.5-1.1,5-2.1,7.4-3.2l1.6,3.7C372.8,483.9,370.3,485,367.8,486.1z M382.7,479.5l-1.7-3.6c2.4-1.1,4.9-2.3,7.3-3.4l1.7,3.6
		C387.6,477.2,385.1,478.3,382.7,479.5z M397.4,472.4l-1.8-3.6c2.4-1.2,4.8-2.4,7.2-3.6l1.8,3.6C402.2,470,399.8,471.2,397.4,472.4z
		 M411.8,465l-1.9-3.5c2.4-1.3,4.7-2.6,7.1-3.9l1.9,3.5C416.6,462.4,414.2,463.7,411.8,465z M426,457.1l-2-3.5
		c2.3-1.3,4.6-2.7,6.9-4.1l2.1,3.4C430.7,454.3,428.3,455.7,426,457.1z M439.9,448.7l-2.1-3.4c2.3-1.4,4.5-2.9,6.8-4.3l2.2,3.3
		C444.5,445.8,442.2,447.2,439.9,448.7z M453.6,439.8l-2.2-3.3c2.2-1.5,4.4-3,6.6-4.6l2.3,3.3C458,436.7,455.8,438.2,453.6,439.8z
		 M466.8,430.4l-2.4-3.2c2.2-1.6,4.3-3.2,6.4-4.8l2.4,3.2C471.2,427.1,469,428.8,466.8,430.4z M479.8,420.4l-2.5-3.1
		c2.1-1.7,4.2-3.4,6.2-5.1l2.6,3.1C484,417,481.9,418.7,479.8,420.4z"/>
	<path fill="#D7AF68" d="M492.3,409.9l-2.6-3c1-0.9,2-1.7,3-2.6l2.7,3C494.4,408.1,493.4,409,492.3,409.9z"/>
</g>
<path fill="#D7AF68" d="M447.3,622.3l-0.9-3.9c1.6-0.4,3.3-0.8,4.9-1.2l0.9,3.9C450.6,621.5,449,621.9,447.3,622.3z M460,619.2
	l-1-3.9c2.6-0.7,5.2-1.3,7.7-2l1,3.9C465.2,617.9,462.6,618.6,460,619.2z M475.5,615.1l-1.1-3.9c2.6-0.7,5.2-1.4,7.7-2.2l1.1,3.8
	C480.7,613.7,478.1,614.4,475.5,615.1z M491,610.7l-1.1-3.8c2.6-0.8,5.1-1.5,7.6-2.3l1.2,3.8C496.1,609.2,493.5,609.9,491,610.7z
	 M506.3,606l-1.2-3.8c2.6-0.8,5.1-1.6,7.6-2.5l1.3,3.8C511.4,604.3,508.9,605.1,506.3,606z M521.5,600.9l-1.3-3.8
	c2.6-0.9,5.1-1.8,7.5-2.6l1.3,3.8C526.6,599.2,524.1,600,521.5,600.9z M536.6,595.6l-1.4-3.8c2.6-0.9,5.1-1.9,7.5-2.8l1.4,3.7
	C541.7,593.7,539.2,594.6,536.6,595.6z M551.6,589.9l-1.5-3.7c2.6-1,5-2,7.4-3l1.5,3.7C556.7,587.9,554.2,588.8,551.6,589.9z
	 M566.5,583.8l-1.6-3.7c2.6-1.1,5-2.1,7.3-3.1l1.6,3.7C571.6,581.7,569.1,582.7,566.5,583.8z M581.2,577.4l-1.7-3.6
	c2.6-1.2,5.1-2.3,7.2-3.3l1.7,3.6C586.3,575.1,583.9,576.2,581.2,577.4z M595.8,570.5l-1.8-3.6c4.6-2.3,7-3.6,7.1-3.6l1.9,3.5
	C602.9,566.9,600.5,568.2,595.8,570.5z"/>
<g>
	<g>
		<path fill="#FFFFFF" d="M256.1,551.1l-35.8-88.7c-1.3-2.9-4.6-4.1-7.5-2.9l0,0c-2.9,1.3-4.1,4.6-2.9,7.5l40.9,85.8L256.1,551.1z"
			/>
	</g>
	<g>
		<path fill="#FFFFFF" d="M247.1,475.8c0.8,2.1-0.2,4.4-2.3,5.3l-38.8,15.6c-2.1,0.8-4.4-0.2-5.3-2.3l-5.5-13.8
			c-0.8-2.1,0.2-4.4,2.3-5.3l38.8-15.6c2.1-0.8,4.4,0.2,5.3,2.3L247.1,475.8z"/>
		<g>
			<path fill="#EF5757" d="M213.3,481.4c1.6,3.9-0.3,8.3-4.2,9.9c-3.9,1.6-8.3-0.3-9.9-4.2c-1.6-3.9,0.3-8.3,4.2-9.9
				S211.8,477.5,213.3,481.4z"/>
			<path fill="#FFFF00" d="M228.2,475.4c1.6,3.9-0.3,8.3-4.2,9.9c-3.9,1.6-8.3-0.3-9.9-4.2c-1.6-3.9,0.3-8.3,4.2-9.9
				C222.2,469.6,226.7,471.5,228.2,475.4z"/>
			<path fill="#6C8054" d="M243.2,469.4c1.6,3.9-0.3,8.3-4.2,9.9c-3.9,1.6-8.3-0.3-9.9-4.2c-1.6-3.9,0.3-8.3,4.2-9.9
				C237.2,463.6,241.6,465.5,243.2,469.4z"/>
		</g>
	</g>
</g>
<g>
	<polygon fill="#1B8F8F" points="305.4,477.9 300,479.8 273.7,399.8 279.1,397.9 	"/>
	<path fill="#1B8F8F" d="M297.4,414c2.6,8-1.7,16.6-9.7,19.2c-8,2.6-16.6-1.7-19.2-9.7c-2.6-8,1.7-16.6,9.7-19.2
		C286.2,401.6,294.8,406,297.4,414z"/>
	
		<rect x="274" y="411.5" transform="matrix(0.9736 -0.2281 0.2281 0.9736 -87.0006 75.0307)" fill="#FFFFFF" width="14.2" height="4.9"/>
	<polygon fill="#FFFFFF" points="291.8,424.1 278,427.4 276.9,422.6 290.7,419.4 	"/>
</g>
<g>
	<path fill="#85C83B" d="M236.6,364.5c1.5-2.6,2-5.8,0.9-8.9c-1.7-4.8-6.5-7.6-11.3-7c-0.1-0.4-0.2-0.7-0.3-1.1
		c-1.9-5.5-7.9-8.4-13.4-6.5c-1.3,0.5-2.4,1.1-3.4,2c-2.7-2-6.4-2.7-9.8-1.5c-2.4,0.9-4.4,2.5-5.6,4.6c-2.7-1.9-6.2-2.6-9.6-1.4
		c-3.3,1.2-5.6,3.8-6.6,6.9c-1.6-0.2-3.3-0.1-4.9,0.5c-5.5,1.9-8.4,7.9-6.5,13.4c0.2,0.6,0.5,1.2,0.8,1.7c-3.1,2.8-4.4,7.2-2.9,11.3
		c0.6,1.6,1.5,2.9,2.6,4c-3.2,2.7-4.6,7.3-3.1,11.5c1.9,5.5,7.9,8.4,13.4,6.5c1.2-0.4,2.3-1,3.2-1.8c2.7,3.7,7.5,5.3,12,3.7
		c3.5-1.2,6-4.1,6.8-7.5c2.5,1.4,5.6,1.8,8.6,0.7c3.6-1.3,6-4.2,6.8-7.7c2.7,1.8,6.1,2.3,9.3,1.2c2.6-0.9,4.7-2.8,5.8-5.1
		c2.1,0.6,4.4,0.7,6.6-0.1c5.5-1.9,8.4-7.9,6.5-13.4C241.3,367.8,239.2,365.7,236.6,364.5z"/>
	<path fill="#A25B1F" d="M225.8,374.5c-3,0.1-6.2,1.8-8.8,3.1c-2.7,1.3-5.4,3-8.2,4.1c-1.4-2.7,1.4-7.8,2.7-10.1
		c1.1-1.8,2.9-4.6,3.3-6.8c0.2-1.4,0.3-4.1-1.9-3.7c-2,0.4-10.1,13.5-11.6,17.1c-3.4-1.9-17.9-7-19.7-6.1c-2,1-0.3,3.1,0.8,4.1
		c1.7,1.5,4.8,2.5,6.8,3.3c2.5,1,7.9,3.2,8.4,6.2c-2.9,0.9-6,1.2-9,1.9c-2.8,0.7-6.4,1.3-8.8,3.1c-3.1,2.3,3.3,3.4,10.5,2
		c5.7-1.1,8.1-0.8,10.8,0.3c0.8,2.2,6.7,17.6,4.4,26.9c0,0,10.9,3,18-6.3c0,0-9.7-12.4-12.6-24.2l-0.1,0c1.4-2.3,3.1-4.1,8.1-6.7
		C225.4,379.2,229.7,374.4,225.8,374.5z"/>
	<g>
		<path fill="#FFF27A" d="M190.8,359.5c0.8,2.2-0.4,4.7-2.6,5.5c-2.2,0.8-4.7-0.4-5.5-2.6c-0.8-2.2,0.4-4.7,2.6-5.5
			C187.6,356,190,357.2,190.8,359.5z"/>
		<path fill="#FFF27A" d="M208.4,369.5c0.8,2.2-0.4,4.7-2.6,5.5c-2.2,0.8-4.7-0.4-5.5-2.6c-0.8-2.2,0.4-4.7,2.6-5.5
			C205.2,366,207.6,367.2,208.4,369.5z"/>
		<path fill="#FFF27A" d="M215.4,354.9c0.8,2.2-0.4,4.7-2.6,5.5c-2.2,0.8-4.7-0.4-5.5-2.6c-0.8-2.2,0.4-4.7,2.6-5.5
			C212.2,351.4,214.6,352.6,215.4,354.9z"/>
		<path fill="#FFF27A" d="M227.3,369.7c0.8,2.2-0.4,4.7-2.6,5.5c-2.2,0.8-4.7-0.4-5.5-2.6c-0.8-2.2,0.4-4.7,2.6-5.5
			C224,366.3,226.5,367.4,227.3,369.7z"/>
		<path fill="#FFF27A" d="M187.1,383c0.8,2.2-0.4,4.7-2.6,5.5c-2.2,0.8-4.7-0.4-5.5-2.6c-0.8-2.2,0.4-4.7,2.6-5.5
			C183.9,379.6,186.3,380.8,187.1,383z"/>
	</g>
</g>
<g>
	<path fill="#3D9F5D" d="M290.6,366.4c1.8-1.5,2.9-3.7,2.9-6.2c0-3.9-2.8-7.2-6.4-7.9c0-0.3,0.1-0.6,0.1-0.9c0-4.5-3.6-8.1-8.1-8.1
		c-1.1,0-2.1,0.2-3,0.6c-1.5-2.2-3.9-3.6-6.8-3.6c-2,0-3.8,0.7-5.2,1.9c-1.5-2.1-3.9-3.4-6.6-3.4c-2.7,0-5.1,1.3-6.5,3.3
		c-1.1-0.6-2.4-0.9-3.7-0.9c-4.5,0-8.1,3.6-8.1,8.1c0,0.5,0.1,1,0.1,1.4c-2.9,1.2-5,4.1-5,7.5c0,1.3,0.3,2.5,0.8,3.6
		c-3,1.2-5.2,4.1-5.2,7.6c0,4.5,3.6,8.1,8.1,8.1c1,0,1.9-0.2,2.8-0.5c1,3.3,4.1,5.8,7.8,5.8c2.9,0,5.4-1.5,6.8-3.7
		c1.5,1.7,3.6,2.7,6.1,2.7c2.9,0,5.5-1.5,6.9-3.9c1.5,2,3.8,3.3,6.5,3.3c2.1,0,4.1-0.8,5.5-2.2c1.3,1,3,1.6,4.8,1.6
		c4.5,0,8.1-3.6,8.1-8.1C293.2,370,292.2,367.9,290.6,366.4z"/>
	<path fill="#A25B1F" d="M280.3,370.9c-2.2-0.7-5-0.2-7.2,0c-2.3,0.2-4.7,0.8-7,0.9c-0.3-2.3,3-5.3,4.6-6.6c1.3-1.1,3.3-2.6,4.1-4.1
		c0.5-1,1.2-2.9-0.5-3.2c-1.6-0.2-10.8,7.2-12.8,9.5c-2-2.2-11.2-9.7-12.8-9.5c-1.7,0.2-1,2.2-0.5,3.2c0.8,1.5,2.8,3,4.1,4.1
		c1.6,1.3,4.9,4.3,4.6,6.6c-2.3-0.1-4.7-0.7-7-0.9c-2.2-0.2-5-0.7-7.2,0c-2.8,0.9,1.5,3.3,7.1,4.1c4.4,0.6,6.1,1.5,7.8,2.9
		c0.1,1.8,0.4,14.5-3.6,20.7c0,0,7.1,4.9,14.7,0c0,0-3.9-11.5-3-20.8l-0.1,0c1.6-1.4,3.3-2.2,7.6-2.8
		C278.7,374.2,283.1,371.8,280.3,370.9z"/>
	<g>
		<circle fill="#FFF27A" cx="255.3" cy="351.1" r="3.3"/>
		<circle fill="#FFF27A" cx="265.5" cy="362.8" r="3.3"/>
		<path fill="#FFF27A" d="M277.7,354c0,1.8-1.5,3.3-3.3,3.3c-1.8,0-3.3-1.5-3.3-3.3c0-1.8,1.5-3.3,3.3-3.3
			C276.2,350.7,277.7,352.1,277.7,354z"/>
		<circle fill="#FFF27A" cx="279.2" cy="367.8" r="3.3"/>
		<path fill="#FFF27A" d="M249.9,367.3c0,1.8-1.5,3.3-3.3,3.3c-1.8,0-3.3-1.5-3.3-3.3c0-1.8,1.5-3.3,3.3-3.3
			C248.4,363.9,249.9,365.4,249.9,367.3z"/>
	</g>
</g>
<g>
	<path fill="#FA9DBB" d="M129.4,535.6c1.3-2.2,1.7-4.8,0.8-7.4c-1.4-4-5.4-6.4-9.4-5.9c-0.1-0.3-0.2-0.6-0.3-0.9
		c-1.6-4.6-6.6-7.1-11.2-5.5c-1.1,0.4-2,0.9-2.9,1.6c-2.3-1.7-5.3-2.3-8.2-1.3c-2.1,0.7-3.7,2.1-4.7,3.8c-2.2-1.6-5.2-2.2-8-1.2
		c-2.8,0.9-4.7,3.1-5.6,5.7c-1.3-0.2-2.7-0.1-4.1,0.4c-4.6,1.6-7.1,6.6-5.5,11.2c0.2,0.5,0.4,1,0.6,1.4c-2.6,2.3-3.7,6-2.5,9.5
		c0.5,1.3,1.2,2.5,2.1,3.4c-2.7,2.3-3.9,6-2.7,9.6c1.6,4.6,6.6,7.1,11.2,5.5c1-0.3,1.9-0.9,2.7-1.5c2.2,3.1,6.2,4.5,10,3.2
		c2.9-1,5-3.4,5.7-6.2c2.1,1.2,4.7,1.5,7.2,0.7c3-1,5.1-3.5,5.7-6.4c2.2,1.5,5.1,2,7.8,1.1c2.2-0.8,3.9-2.3,4.9-4.2
		c1.7,0.5,3.6,0.6,5.5-0.1c4.6-1.6,7.1-6.6,5.5-11.2C133.4,538.4,131.6,536.5,129.4,535.6z"/>
	<path fill="#A25B1F" d="M120.3,543.8c-2.5,0-5.2,1.5-7.4,2.5c-2.3,1.1-4.5,2.5-6.9,3.4c-1.2-2.2,1.2-6.5,2.4-8.4
		c0.9-1.5,2.4-3.8,2.8-5.6c0.2-1.2,0.2-3.5-1.6-3.1c-1.7,0.4-8.6,11.2-9.8,14.2c-2.8-1.6-14.9-6-16.5-5.2c-1.7,0.8-0.2,2.6,0.6,3.4
		c1.4,1.3,4,2.1,5.6,2.8c2.1,0.8,6.6,2.7,7,5.2c-2.4,0.7-5.1,0.9-7.5,1.5c-2.4,0.6-5.4,1-7.4,2.6c-2.6,1.9,2.7,2.9,8.8,1.7
		c4.8-0.9,6.8-0.6,9,0.3c0.7,1.8,5.5,14.8,3.5,22.6c0,0,9.1,2.6,15.1-5.1c0,0-8-10.4-10.4-20.3l-0.1,0c1.2-2,2.6-3.4,6.9-5.6
		C120,547.8,123.6,543.8,120.3,543.8z"/>
	<g>
		<path fill="#F668B2" d="M90.1,530c0.6,1.9-0.4,3.9-2.2,4.6c-1.9,0.6-3.9-0.4-4.6-2.2c-0.6-1.9,0.4-3.9,2.2-4.6
			C87.4,527.1,89.4,528.1,90.1,530z"/>
		<path fill="#F668B2" d="M104.7,538.5c0.6,1.9-0.4,3.9-2.2,4.6c-1.9,0.6-3.9-0.4-4.6-2.2c-0.6-1.9,0.4-3.9,2.2-4.6
			C102,535.6,104.1,536.6,104.7,538.5z"/>
		<path fill="#F668B2" d="M110.7,526.3c0.6,1.9-0.4,3.9-2.2,4.6c-1.9,0.6-3.9-0.4-4.6-2.2c-0.6-1.9,0.4-3.9,2.2-4.6
			C108,523.4,110.1,524.4,110.7,526.3z"/>
		<path fill="#F668B2" d="M120.5,538.8c0.6,1.9-0.4,3.9-2.2,4.6c-1.9,0.6-3.9-0.4-4.6-2.2c-0.6-1.9,0.4-3.9,2.2-4.6
			C117.8,535.9,119.9,536.9,120.5,538.8z"/>
		<path fill="#F668B2" d="M86.8,549.7c0.6,1.9-0.4,3.9-2.2,4.6c-1.9,0.6-3.9-0.4-4.6-2.2c-0.6-1.9,0.4-3.9,2.2-4.6
			C84.1,546.8,86.2,547.8,86.8,549.7z"/>
	</g>
</g>
<g>
	<path fill="#FA9DBB" d="M174.6,526.4c1.5-2,2.1-4.7,1.5-7.3c-1-4.1-4.7-6.9-8.8-6.8c0-0.3-0.1-0.6-0.2-0.9
		c-1.1-4.7-5.9-7.7-10.6-6.6c-1.1,0.3-2.1,0.7-3,1.4c-2.1-1.9-5.1-2.8-8-2.1c-2.1,0.5-3.9,1.7-5.1,3.3c-2.1-1.8-5-2.7-7.9-2
		c-2.8,0.7-5,2.7-6.1,5.2c-1.3-0.3-2.7-0.4-4.1,0c-4.7,1.1-7.7,5.9-6.6,10.6c0.1,0.5,0.3,1,0.5,1.5c-2.8,2-4.3,5.6-3.4,9.2
		c0.3,1.4,1,2.6,1.8,3.6c-2.9,2-4.5,5.6-3.6,9.3c1.1,4.7,5.9,7.7,10.6,6.6c1-0.2,2-0.7,2.8-1.2c1.9,3.3,5.8,5.1,9.6,4.2
		c3-0.7,5.3-2.9,6.3-5.7c2,1.4,4.5,2,7.1,1.4c3.1-0.7,5.4-3,6.3-5.8c2.1,1.7,4.9,2.5,7.7,1.8c2.3-0.5,4.1-1.9,5.3-3.7
		c1.7,0.7,3.6,0.9,5.5,0.5c4.7-1.1,7.7-5.9,6.6-10.6C178.2,529.5,176.6,527.6,174.6,526.4z"/>
	<path fill="#A25B1F" d="M164.7,533.7c-2.5-0.2-5.3,1-7.6,1.8c-2.4,0.8-4.7,2-7.2,2.7c-0.9-2.3,1.8-6.3,3.2-8.1
		c1.1-1.4,2.8-3.5,3.3-5.3c0.3-1.1,0.6-3.4-1.3-3.2c-1.7,0.2-9.6,10.3-11.2,13.2c-2.7-1.9-14.2-7.4-15.9-6.8
		c-1.8,0.7-0.5,2.6,0.3,3.5c1.3,1.4,3.7,2.5,5.3,3.3c2,1,6.3,3.4,6.5,5.9c-2.5,0.5-5.1,0.4-7.6,0.8c-2.4,0.3-5.5,0.5-7.6,1.8
		c-2.8,1.7,2.4,3.1,8.6,2.6c4.8-0.4,6.8,0.1,8.9,1.2c0.5,1.9,4,15.3,1.3,22.8c0,0,8.8,3.4,15.5-3.7c0,0-7-11.1-8.4-21.3l-0.1,0
		c1.4-1.8,3-3.2,7.4-4.9C164,537.6,167.9,534,164.7,533.7z"/>
	<g>
		<path fill="#F668B2" d="M135.9,517c0.5,1.9-0.7,3.9-2.7,4.3c-1.9,0.5-3.9-0.7-4.3-2.7c-0.5-1.9,0.7-3.9,2.7-4.3
			C133.6,513.9,135.5,515.1,135.9,517z"/>
		<path fill="#F668B2" d="M149.7,526.9c0.5,1.9-0.7,3.9-2.7,4.3c-1.9,0.5-3.9-0.7-4.3-2.7c-0.5-1.9,0.7-3.9,2.7-4.3
			C147.3,523.8,149.2,525,149.7,526.9z"/>
		<path fill="#F668B2" d="M156.8,515.4c0.5,1.9-0.7,3.9-2.7,4.3c-1.9,0.5-3.9-0.7-4.3-2.7c-0.5-1.9,0.7-3.9,2.7-4.3
			C154.4,512.2,156.4,513.4,156.8,515.4z"/>
		<path fill="#F668B2" d="M165.4,528.7c0.5,1.9-0.7,3.9-2.7,4.3c-1.9,0.5-3.9-0.7-4.3-2.7c-0.5-1.9,0.7-3.9,2.7-4.3
			C163,525.6,164.9,526.8,165.4,528.7z"/>
		<path fill="#F668B2" d="M130.8,536.3c0.5,1.9-0.7,3.9-2.7,4.3c-1.9,0.5-3.9-0.7-4.3-2.7c-0.5-1.9,0.7-3.9,2.7-4.3
			C128.4,533.2,130.3,534.4,130.8,536.3z"/>
	</g>
</g>
</svg>
